<svg id="Layer_1" data-name="Layer 1" xmlns="http://www.w3.org/2000/svg" viewBox="0 0 20.25 20.25"><title>advance-text</title><path d="M8.22,4.78a6.58,6.58,0,0,0-1.09,0,1.63,1.63,0,0,0-1,.48,1.8,1.8,0,0,0-.41,1,7.75,7.75,0,0,0,0,1.18V8a.69.69,0,0,0,.69.7A.7.7,0,0,0,7.12,8h0V7.55a8.34,8.34,0,0,1,0-1,.74.74,0,0,1,0-.21h.14a4.71,4.71,0,0,1,.92,0H9.43v7.79H7.8a.7.7,0,1,0,0,1.39h5.11a.7.7,0,1,0,0-1.39H10.82v-8H12a4.71,4.71,0,0,1,.92,0h.15v.21c0,.33,0,.66,0,1v.49a.7.7,0,0,0,1.39,0V7.51a7.75,7.75,0,0,0,0-1.18,1.75,1.75,0,0,0-.41-1,1.53,1.53,0,0,0-1-.48,6.25,6.25,0,0,0-1.06,0Z" fill="#3a3a3a" stroke="#3a3a3a" stroke-miterlimit="10" stroke-width="0.25"/><path d="M10.13.13a10,10,0,1,0,10,10A10,10,0,0,0,10.13.13Zm-8.61,10a8.61,8.61,0,1,1,8.61,8.6h0A8.61,8.61,0,0,1,1.52,10.13Z" fill="#3a3a3a" stroke="#3a3a3a" stroke-miterlimit="10" stroke-width="0.25" fill-rule="evenodd"/></svg>