<svg id="Layer_1" data-name="Layer 1" xmlns="http://www.w3.org/2000/svg" viewBox="0 0 21 21"><title>advance-accordion</title><path d="M3,.5a.32.32,0,0,0-.26.37A.32.32,0,0,0,3,1.13H17.38a.32.32,0,0,0,.26-.37A.32.32,0,0,0,17.38.5Z" fill="#3a3a3a" stroke="#3a3a3a" stroke-miterlimit="10"/><path d="M19.56,3.63H1.44a.94.94,0,0,0-.94.93V16.44a1,1,0,0,0,.94.94H19.56a1,1,0,0,0,.94-.94V4.56A.94.94,0,0,0,19.56,3.63Zm.32,12.81a.33.33,0,0,1-.32.31H1.44a.31.31,0,0,1-.31-.31V4.56a.31.31,0,0,1,.31-.31H19.56a.33.33,0,0,1,.32.31Z" fill="#3a3a3a" stroke="#3a3a3a" stroke-miterlimit="10"/><path d="M17.38,19.88H3a.31.31,0,0,0,0,.62H17.38a.31.31,0,1,0,0-.62Z" fill="#3a3a3a" stroke="#3a3a3a" stroke-miterlimit="10"/></svg>