<svg id="Layer_1" data-name="Layer 1" xmlns="http://www.w3.org/2000/svg" viewBox="0 0 20.75 8.93"><title>button</title><path d="M18.1,8.56H2.65A2.27,2.27,0,0,1,.38,6.29s0,0,0,0V2.65A2.25,2.25,0,0,1,2.63.38s0,0,0,0H18.1a2.28,2.28,0,0,1,2.28,2.27v3.6a2.29,2.29,0,0,1-2.27,2.3ZM2.65,1.25a1.38,1.38,0,0,0-1.4,1.37V6.25a1.38,1.38,0,0,0,1.36,1.4H18.1a1.39,1.39,0,0,0,1.37-1.39h0V2.65a1.39,1.39,0,0,0-1.37-1.4ZM14.92,4H5.83v.91h9.09Z" fill="#3a3a3a" stroke="#3a3a3a" stroke-miterlimit="10" stroke-width="0.75"/></svg>