<svg id="Layer_1" data-name="Layer 1" xmlns="http://www.w3.org/2000/svg" viewBox="0 0 21 21.19"><title>countdown</title><g id="Timer"><path d="M.78,8.36A10,10,0,0,0,8.13,20.42a9.87,9.87,0,0,0,3.94.14,10,10,0,0,0,8.3-11.45h0a9.86,9.86,0,0,0-1.1-3.21A10.12,10.12,0,0,0,10.51.7a.5.5,0,0,0-.5.51V5.43a.51.51,0,0,0,.5.5.5.5,0,0,0,.5-.5V1.21l-.5.5a9,9,0,0,1,9,9h0a9.3,9.3,0,0,1-.5,3A9,9,0,0,1,7.53,19.19a9.22,9.22,0,0,1-2.59-1.42A9.15,9.15,0,0,1,1.75,8.63C1.9,8,.93,7.73.78,8.36Z" fill="#3a3a3a" stroke="#3a3a3a" stroke-miterlimit="10"/><path d="M5.88,6.79A.52.52,0,0,1,6,6.07a.51.51,0,0,1,.62,0l4.27,4.23h0a.5.5,0,0,1,0,.71.51.51,0,0,1-.71,0Z" fill="#3a3a3a" stroke="#3a3a3a" stroke-miterlimit="10"/></g></svg>