<svg id="Layer_1" data-name="Layer 1" xmlns="http://www.w3.org/2000/svg" viewBox="0 0 20.5 20.03"><title>custom-css</title><path d="M20,.65a1.08,1.08,0,0,0-.84-.4H4A1.09,1.09,0,0,0,4,2.42H17.85L17,6.76H2.89a1.09,1.09,0,1,0,0,2.17H16.58l-1.27,6.46L8.45,17.56,2.58,15.72l.22-1.16a1.08,1.08,0,1,0-2.13-.41h0l-.4,2.11A1.09,1.09,0,0,0,1,17.5l7.12,2.23a1,1,0,0,0,.65,0l7.8-2.46a1.08,1.08,0,0,0,.74-.83l2.91-14.9A1.06,1.06,0,0,0,20,.65Z" fill="#3a3a3a" stroke="#3a3a3a" stroke-miterlimit="10" stroke-width="0.5"/></svg>