<?xml version="1.0" encoding="UTF-8"?>
<svg id="Layer_1" data-name="Layer 1" xmlns="http://www.w3.org/2000/svg" version="1.1" viewBox="0 0 21 21.2">
  <defs>
    <style>
      .cls-1, .cls-2, .cls-3, .cls-4 {
        display: none;
      }

      .cls-1, .cls-5 {
        isolation: isolate;
      }

      .cls-6 {
        stroke-width: .7px;
      }

      .cls-6, .cls-2, .cls-7, .cls-8 {
        stroke: #3a3a3a;
        stroke-miterlimit: 10;
      }

      .cls-6, .cls-5, .cls-7, .cls-8, .cls-9, .cls-3 {
        fill: #3a3a3a;
      }

      .cls-2 {
        fill: none;
        stroke-width: 2px;
      }

      .cls-5 {
        font-family: Kanit-Medium, Kanit;
        font-size: 14px;
        font-weight: 500;
      }

      .cls-8 {
        stroke-width: .2px;
      }

      .cls-9, .cls-3 {
        stroke-width: 0px;
      }
    </style>
  </defs>
  <g id="Timer" class="cls-4">
    <path class="cls-7" d="M.8,8.4c-1.3,5.4,2,10.8,7.4,12.1,1.3.3,2.6.4,3.9.1,5.5-.9,9.2-6,8.3-11.4h0c-.2-1.1-.6-2.2-1.1-3.2C17.5,2.7,14.2.7,10.5.7s-.5.2-.5.5h0v4.2c0,.3.2.5.5.5s.5-.2.5-.5V1.2l-.5.5c5,0,9,4,9,9h0c0,1-.2,2-.5,3-1.7,4.7-6.8,7.1-11.5,5.5-.9-.3-1.8-.8-2.6-1.4C2.2,15.6.9,12.1,1.7,8.7c.1-.6-.8-.9-1-.3h0Z"/>
    <path class="cls-7" d="M5.9,6.8c-.2-.2,0-.6,0-.7s.4,0,.6,0l4.3,4.2h0c.2.2.2.5,0,.7h0c-.2.2-.5.2-.7,0,0,0-4.3-4.2-4.3-4.2Z"/>
  </g>
  <path class="cls-3" d="M13.8,17.7h-6.9l-1.1,2.9H.5L8.6.6h3.5l8.4,20h-5.6s-1.1-2.9-1.1-2.9ZM8.9,12.7l-.2.5h3.4v-.3c-.1,0-1.7-4.3-1.7-4.3l-1.5,4.2h0Z"/>
  <circle class="cls-2" cx="10.5" cy="10.6" r="9.5"/>
  <g class="cls-1">
    <text class="cls-5" transform="translate(5.6 16.1)"><tspan x="0" y="0">A</tspan></text>
  </g>
  <g class="cls-4">
    <path class="cls-9" d="M18.6,14.3c.3,0,.6.3.6.6v11.2c0,.3-.3.6-.6.6H2.4c-.3,0-.6-.3-.6-.6v-11.2c0-.3.3-.6.6-.6h16.3,0ZM2.4,13.1c-1,0-1.9.8-1.9,1.9v11.2c0,1,.8,1.9,1.9,1.9h16.3c1,0,1.9-.8,1.9-1.9v-11.2c0-1-.8-1.9-1.9-1.9,0,0-16.3,0-16.3,0Z"/>
    <path class="cls-9" d="M9.2,17.5c0-.3.3-.6.6-.6h6.2c.3,0,.6.3.6.6s-.3.6-.6.6h-6.2c-.3,0-.6-.3-.6-.6ZM7.4,16.4c.2.2.2.6,0,.9h0l-1.9,1.9c-.2.2-.6.2-.9,0h0l-.6-.6c-.2-.2-.2-.6,0-.9.2-.2.6-.2.9,0h0l.2.2,1.4-1.4c.2-.2.6-.2.9,0h0ZM9.2,22.5c0-.3.3-.6.6-.6h6.2c.3,0,.6.3.6.6s-.3.6-.6.6h-6.2c-.3,0-.6-.3-.6-.6ZM7.4,21.4c.2.2.2.6,0,.9h0l-1.9,1.9c-.2.2-.6.2-.9,0h0l-.6-.6c-.2-.2-.2-.6,0-.9.2-.2.6-.2.9,0l.2.2,1.4-1.4c.2-.2.6-.2.9,0h0Z"/>
  </g>
  <g class="cls-4">
    <path class="cls-8" d="M17.9,2.3c.7,0,1.2.6,1.2,1.2v9.9c0,.7-.6,1.2-1.2,1.2h-3.1c-.8,0-1.5.4-2,1l-2.4,3.1-2.4-3.1c-.5-.6-1.2-1-2-1h-3.1c-.7,0-1.2-.6-1.2-1.2V3.6c0-.7.6-1.2,1.2-1.2h15ZM3.1,1.1C1.7,1.1.6,2.2.6,3.6v9.9c0,1.4,1.1,2.5,2.5,2.5h3.1c.4,0,.8.2,1,.5l2.4,3.1c.4.5,1.2.7,1.7.2l.2-.2,2.4-3.1c.2-.3.6-.5,1-.5h3.1c1.4,0,2.5-1.1,2.5-2.5V3.6c0-1.4-1.1-2.5-2.5-2.5,0,0-14.9,0-14.9,0Z"/>
    <path class="cls-8" d="M4.3,5.4c0-.3.3-.6.6-.6h11.2c.3,0,.6.3.6.6s-.3.6-.6.6H4.9c-.3,0-.6-.3-.6-.6ZM4.3,8.5c0-.3.3-.6.6-.6h11.2c.3,0,.6.3.6.6s-.3.6-.6.6H4.9c-.3,0-.6-.3-.6-.6ZM4.3,11.6c0-.3.3-.6.6-.6h6.2c.3,0,.6.3.6.6s-.3.6-.6.6h-6.2c-.3,0-.6-.3-.6-.6Z"/>
  </g>
  <path class="cls-6" d="M3.4,2.3c-.7,0-1.2.5-1.2,1.2s.5,1.2,1.2,1.2,1.2-.5,1.2-1.2-.5-1.2-1.2-1.2ZM1,3.5c0-1.3,1.1-2.4,2.4-2.4,1.1,0,2,.7,2.3,1.8h9.6c.3-1.3,1.6-2,2.9-1.7s2,1.6,1.7,2.9c-.2.8-.9,1.5-1.7,1.7v9.6c1.3.3,2,1.6,1.7,2.9s-1.6,2-2.9,1.7c-.8-.2-1.5-.9-1.7-1.7H5.7c-.3,1.3-1.6,2-2.9,1.7-1.3-.3-2-1.6-1.7-2.9.2-.8.9-1.5,1.7-1.7V5.8c-1-.3-1.8-1.2-1.8-2.3ZM4,5.8v9.6c.8.2,1.5.9,1.7,1.7h9.6c.2-.8.9-1.5,1.7-1.7V5.8c-.8-.2-1.5-.9-1.7-1.7H5.7c-.2.8-.9,1.5-1.7,1.7ZM17.6,2.3c-.7,0-1.2.5-1.2,1.2s.5,1.2,1.2,1.2,1.2-.5,1.2-1.2-.5-1.2-1.2-1.2ZM3.4,16.5c-.7,0-1.2.5-1.2,1.2s.5,1.2,1.2,1.2,1.2-.5,1.2-1.2-.5-1.2-1.2-1.2ZM17.6,16.5c-.7,0-1.2.5-1.2,1.2s.5,1.2,1.2,1.2,1.2-.5,1.2-1.2-.5-1.2-1.2-1.2Z"/>
</svg>