<svg id="Layer_1" data-name="Layer 1" xmlns="http://www.w3.org/2000/svg" viewBox="0 0 22 19.78"><title>data-table</title><path d="M7.67,9.89H21M7.67,1V18.78m-3.11,0H17.44a5.61,5.61,0,0,0,2.35-.24,2.35,2.35,0,0,0,1-1A5.53,5.53,0,0,0,21,15.22V4.56a5.61,5.61,0,0,0-.24-2.35,2.38,2.38,0,0,0-1-1A5.61,5.61,0,0,0,17.44,1H4.56a5.61,5.61,0,0,0-2.35.24,2.38,2.38,0,0,0-1,1A5.61,5.61,0,0,0,1,4.56V15.22a5.53,5.53,0,0,0,.24,2.34,2.35,2.35,0,0,0,1,1A5.61,5.61,0,0,0,4.56,18.78Z" fill="none" stroke="#3a3a3a" stroke-linecap="round" stroke-linejoin="round" stroke-width="2"/></svg>