<svg id="Layer_1" data-name="Layer 1" xmlns="http://www.w3.org/2000/svg" viewBox="0 0 20.4 9.73"><title>dual-button</title><path d="M2.87,1.53H17.53a1.34,1.34,0,0,1,1.34,1.34h0v4A1.34,1.34,0,0,1,17.53,8.2H2.87A1.34,1.34,0,0,1,1.53,6.87v-4A1.34,1.34,0,0,1,2.87,1.53ZM.2,2.87A2.66,2.66,0,0,1,2.85.2H17.53A2.66,2.66,0,0,1,20.2,2.85v4a2.66,2.66,0,0,1-2.66,2.66H2.87A2.66,2.66,0,0,1,.2,6.88h0Zm6,1a1,1,0,1,0,1,1A1,1,0,0,0,6.2,3.87Zm3,1a1,1,0,1,1,1,1A1,1,0,0,1,9.2,4.87Zm5-1a1,1,0,1,0,1,1A1,1,0,0,0,14.2,3.87Z" fill="#3a3a3a" stroke="#3a3a3a" stroke-miterlimit="10" stroke-width="0.4" fill-rule="evenodd"/></svg>