<svg id="Layer_1" data-name="Layer 1" xmlns="http://www.w3.org/2000/svg" viewBox="0 0 22 22"><title>flip-carousel</title><path d="M1,17.11V4.89c0-1.71,0-2.56.54-2.84s1.24.22,2.62,1.21L5.74,4.39c.62.44.93.66,1.09,1A3.17,3.17,0,0,1,7,6.83v8.34a3.17,3.17,0,0,1-.17,1.46c-.16.32-.47.54-1.09,1L4.16,18.74c-1.38,1-2.08,1.49-2.62,1.21S1,18.82,1,17.11Z" fill="none" stroke="#3a3a3a" stroke-width="2"/><path d="M21,17.11V4.89c0-1.71,0-2.56-.54-2.84s-1.24.22-2.62,1.21L16.26,4.39c-.62.44-.93.66-1.09,1A3.17,3.17,0,0,0,15,6.83v8.34a3.17,3.17,0,0,0,.17,1.46c.16.32.47.54,1.09,1l1.58,1.13c1.38,1,2.08,1.49,2.62,1.21S21,18.82,21,17.11Z" fill="none" stroke="#3a3a3a" stroke-width="2"/><path d="M11,13V9" fill="none" stroke="#3a3a3a" stroke-linecap="round" stroke-width="2" style="isolation:isolate"/><path d="M11,5V1" fill="none" stroke="#3a3a3a" stroke-linecap="round" stroke-width="2" style="isolation:isolate"/><path d="M11,21V17" fill="none" stroke="#3a3a3a" stroke-linecap="round" stroke-width="2" style="isolation:isolate"/></svg>