<?xml version="1.0" encoding="UTF-8"?>
<svg id="uuid-874c38fd-2a31-4cde-b240-992de33447db" data-name="Flat" xmlns="http://www.w3.org/2000/svg" viewBox="0 0 24.75 20.2">
  <path d="M.32,3.57C-.03,3.13.04,2.49.48,2.14,1.6,1.32,2.86.74,4.2.41,6.27-.11,9.46-.23,12.94,2.09c5.41,3.61,9.86.2,10.05.05.44-.35,1.09-.28,1.44.17.35.44.28,1.08-.16,1.43-1.11.82-2.38,1.4-3.72,1.73-.82.21-1.67.31-2.52.31-1.8,0-3.95-.47-6.22-1.99-5.41-3.61-9.86-.2-10.05-.05-.44.35-1.08.27-1.44-.17ZM22.99,9.3c-.19.15-4.64,3.56-10.05-.05-3.48-2.32-6.68-2.19-8.74-1.68-1.34.33-2.6.91-3.72,1.73-.44.35-.51,1-.16,1.44.35.44.99.51,1.43.16.19-.15,4.64-3.56,10.05.05,2.28,1.52,4.43,1.99,6.22,1.99,2.24,0,4.42-.72,6.24-2.04.44-.35.51-1,.16-1.44-.35-.44-.99-.51-1.43-.16h0ZM22.99,16.46c-.19.15-4.64,3.56-10.05-.05-3.48-2.32-6.68-2.19-8.74-1.68-1.34.33-2.6.91-3.72,1.73-.44.35-.51,1-.16,1.44.35.44.99.51,1.43.16.19-.15,4.64-3.56,10.05.05,2.28,1.52,4.43,1.99,6.22,1.99,2.24,0,4.42-.72,6.24-2.04.44-.35.51-1,.16-1.44-.35-.44-.99-.51-1.43-.16h0Z" fill="#3a3a3a" stroke="#3a3a3a" stroke-miterlimit="10" stroke-width=".2"/>
</svg>