<svg id="Layer_1" data-name="Layer 1" xmlns="http://www.w3.org/2000/svg" viewBox="0 0 20.47 16.13"><title>image-hotspots</title><path d="M13.69,12.4a.68.68,0,0,1-.45-.19,4.5,4.5,0,0,0-6,0,.72.72,0,1,1-1.19-.81.69.69,0,0,1,.19-.19l.07-.07a5.92,5.92,0,0,1,7.84,0,.72.72,0,0,1,.07,1A.68.68,0,0,1,13.69,12.4Z" fill="#3a3a3a" stroke="#3a3a3a" stroke-miterlimit="10" stroke-width="0.5"/><path d="M16.62,9.08a.73.73,0,0,1-.53-.24A8,8,0,0,0,4.87,8.37l-.47.47a.73.73,0,1,1-1.07-1A9.41,9.41,0,0,1,16.6,7.31c.19.17.38.36.56.55a.74.74,0,0,1,0,1A.77.77,0,0,1,16.62,9.08Z" fill="#3a3a3a" stroke="#3a3a3a" stroke-miterlimit="10" stroke-width="0.5"/><path d="M1,5.81a.71.71,0,0,1-.48-.19.73.73,0,0,1-.06-1h0a13.17,13.17,0,0,1,18.6-1h0a13.48,13.48,0,0,1,1,1,.74.74,0,1,1-1.08,1,11.71,11.71,0,0,0-16.51-1,11.54,11.54,0,0,0-.93.92A.75.75,0,0,1,1,5.81Z" fill="#3a3a3a" stroke="#3a3a3a" stroke-miterlimit="10" stroke-width="0.5"/><path d="M10.24,15.88a.73.73,0,1,0,0-1.45.72.72,0,0,0-.72.72h0A.73.73,0,0,0,10.24,15.88Z" fill="#3a3a3a" stroke="#3a3a3a" stroke-miterlimit="10" stroke-width="0.5"/></svg>