<svg id="Layer_1" data-name="Layer 1" xmlns="http://www.w3.org/2000/svg" viewBox="0 0 20.5 22.33"><title>mailchimp</title><path d="M19.35,15v-.46a1.78,1.78,0,0,0,.46-1.09c0-.68-1.37-2.1-2.29-2.58v-2a4.84,4.84,0,0,0-.92-2.51c.48-.42,1.84-1.75,1.84-2.95,0-1.9-1.4-2.27-3.65-2.27a6.64,6.64,0,0,0-2,.43c-.35-.43-1.18-1.35-2-1.35A12,12,0,0,0,4,3.57C1.71,5.86.25,8.79.25,9.79a3.12,3.12,0,0,0,1.22,1.94,2.71,2.71,0,0,0,2.54,4c1.24,3.82,4.36,6.37,7.83,6.37a7.84,7.84,0,0,0,5.64-2.57c0-.05.06-.07.08-.11a10.32,10.32,0,0,0,1.45-2c.45-.16,1.24-.51,1.24-1.18A1.54,1.54,0,0,0,19.35,15Zm-.45-1.55a.82.82,0,0,1-.27.5,19,19,0,0,1-4.28.87l-.72,0c-1,0-1.74,0-2.16.39a1.05,1.05,0,0,0-.3.86,1.53,1.53,0,0,0,.41,1.26,3.86,3.86,0,0,0,2.8.72,17,17,0,0,0,3.36-.3c-.26.37-.55.72-.83,1.05a9.52,9.52,0,0,1-3.47.58,3.9,3.9,0,0,1-3.65-3.64c0-1.4,1.77-2.21,2-2.29a8.37,8.37,0,0,0,2.38-.83,9.42,9.42,0,0,1,2.88-1A5.29,5.29,0,0,1,18.9,13.44ZM16.63,8.9v1.87c-.18,0-.33.05-.48.09,0,0,0-.11,0-.15v-.46a.46.46,0,0,0-.92,0v.46a.43.43,0,0,0,.2.35c-.55.19-1.12.46-1.68.7-.2.08-.4.19-.59.26a.44.44,0,0,0,.26-.39v-.46a.46.46,0,0,0-.92,0v.46a.47.47,0,0,0,.46.45.33.33,0,0,0,.15,0,5.06,5.06,0,0,1-1.46.48c-.37-.15-1.88-.79-1.88-1.81,0-.68.18-1.81,1.38-1.81a5.72,5.72,0,0,1,1.48.24,5,5,0,0,0,1.25.21,2.67,2.67,0,0,0,1.5-.67c.13-.11.31-.22.31-.24h.13c.2,0,.55,0,.68.11A.48.48,0,0,1,16.63,8.9Zm.89-5.46c0,.67-.87,1.68-1.51,2.25a1.76,1.76,0,0,0-.59-.4c-.93-.41-5.89-2-10.56,5.16a4,4,0,0,0-.7-.18c2.6-5,8.34-8.21,10.63-8.21C17.52,2.06,17.52,2.74,17.52,3.44ZM1.15,9.79c0-.59,1.24-3.3,3.51-5.59a11.46,11.46,0,0,1,6.05-3c.3,0,.78.39,1.13.78a18.41,18.41,0,0,0-8.75,8.43A2.7,2.7,0,0,0,2,11C1.6,10.62,1.15,10.1,1.15,9.79ZM4.9,15.51a2.81,2.81,0,0,0,.35-.17.46.46,0,0,0-.46-.79,1.67,1.67,0,0,1-.92.26A1.83,1.83,0,0,1,2.06,13a1.8,1.8,0,0,1,1.81-1.81,1.67,1.67,0,0,1,.92.26.48.48,0,0,0,.61-.15c4.37-7,8.82-5.53,9.68-5.16a3.35,3.35,0,0,1,1.13,1.42,2.82,2.82,0,0,0-.39,0h-.11a1.65,1.65,0,0,0-.85.42,2.07,2.07,0,0,1-1,.5,3.81,3.81,0,0,1-1-.2A7.68,7.68,0,0,0,11.17,8C10.05,8,8.9,8.7,8.9,10.71A2.87,2.87,0,0,0,10.6,13a3.34,3.34,0,0,0-1.7,2.69,4.79,4.79,0,0,0,4.54,4.56,11.46,11.46,0,0,0,1.88-.15,6.45,6.45,0,0,1-3.48,1.05C8.79,21.17,6,18.92,4.9,15.51Zm13.67,1,0,0H18.5a10.84,10.84,0,0,1-4.12.59c-1.42,0-2-.26-2.16-.46a.81.81,0,0,1-.16-.61V16a.16.16,0,0,1,0-.13,3.44,3.44,0,0,1,1.5-.13h.74A19.2,19.2,0,0,0,18.44,15v.28a.49.49,0,0,0,.28.44,1.78,1.78,0,0,1,.63.43A1.66,1.66,0,0,1,18.57,16.52Z" fill="#3a3a3a" stroke="#3a3a3a" stroke-miterlimit="10" stroke-width="0.5"/></svg>