<svg id="Layer_1" data-name="Layer 1" xmlns="http://www.w3.org/2000/svg" viewBox="0 0 22 22"><title>page-list</title><path d="M11,9.89h5.56" fill="none" stroke="#3a3a3a" stroke-linecap="round" stroke-linejoin="round" stroke-width="2"/><path d="M11,5.44h5.56" fill="none" stroke="#3a3a3a" stroke-linecap="round" stroke-linejoin="round" stroke-width="2"/><path d="M6.56,14.33V1.67A.66.66,0,0,1,7.22,1H20.33a.67.67,0,0,1,.67.67V16.56A4.44,4.44,0,0,1,16.56,21h0" fill="none" stroke="#3a3a3a" stroke-linecap="round" stroke-linejoin="round" stroke-width="2"/><path d="M3.22,14.33h8.22a.72.72,0,0,1,.7.67c.14,1.68.84,6,4.42,6H4.33A3.33,3.33,0,0,1,1,17.67V16.56A2.22,2.22,0,0,1,3.22,14.33Z" fill="none" stroke="#3a3a3a" stroke-linecap="round" stroke-linejoin="round" stroke-width="2"/></svg>