<svg id="Layer_1" data-name="Layer 1" xmlns="http://www.w3.org/2000/svg" viewBox="0 0 20.5 20.5"><title>page-my-account</title><path d="M3.82.25A3.57,3.57,0,0,0,.25,3.82V16.68a3.57,3.57,0,0,0,3.57,3.57H16.68a3.57,3.57,0,0,0,3.57-3.57V8.58A3.58,3.58,0,0,0,19.2,6.05L14.45,1.3a3.58,3.58,0,0,0-2.53-1ZM1.68,3.82A2.14,2.14,0,0,1,3.82,1.68h7.86v5a2.14,2.14,0,0,0,2.14,2.14h5v7.86a2.14,2.14,0,0,1-2.14,2.14H3.82a2.14,2.14,0,0,1-2.14-2.14ZM18.46,7.39H13.82a.71.71,0,0,1-.71-.71V2a1.4,1.4,0,0,1,.33.27l4.75,4.75A1.4,1.4,0,0,1,18.46,7.39Z" fill="#3a3a3a" stroke="#3a3a3a" stroke-miterlimit="10" stroke-width="0.5"/></svg>