<svg id="Layer_1" data-name="Layer 1" xmlns="http://www.w3.org/2000/svg" viewBox="0 0 20.56 19.47"><title>phone-call</title><path d="M13.44,12.67l-.54-.55h0Zm.47-.47.54.55h0Zm2.47-.32-.36.68Zm2,1.06-.36.68Zm.52,3.31.54.55ZM17.44,17.7l-.54-.54Zm-1.36.69.07.76h0ZM6,14.07l.54-.54ZM1,4.86l-.77,0h0ZM7.67,6.35l.59.55h0Zm.16-2.72.62-.46ZM6.54,1.9l-.62.46h0ZM3.35,1.61l.54.54h0ZM1.74,3.25,1.2,2.66h0Zm7.52,7.51.58-.51ZM14,13.25l.47-.46-1.09-1.13-.46.46Zm2-.65,2,1.06.73-1.41-2-1.07Zm2.33,3.18-1.45,1.45,1.12,1,1.46-1.45ZM16,17.65c-1.49.14-5.33,0-9.5-4.12L5.43,14.62c4.54,4.52,8.87,4.74,10.72,4.56Zm-9.5-4.12c-4-3.95-4.63-7.28-4.71-8.71L.26,4.9c.11,1.82.92,5.5,5.17,9.72ZM7.92,7.19l.34-.29L7.13,5.8l-.29.3Zm.53-4L7.16,1.44l-1.24.92L7.26,4.09ZM2.81,1.06,1.2,2.66l1.06,1.1L3.89,2.15ZM7.38,6.64,6.83,6.1h0l-.13.15a1.71,1.71,0,0,0-.17.33,2.28,2.28,0,0,0-.09,1.1,7.11,7.11,0,0,0,2.32,3.63l1.08-1.06A5.84,5.84,0,0,1,8,7.45a.86.86,0,0,1,0-.32H8Zm1.38,4.67a7.14,7.14,0,0,0,3.63,2.29,2.27,2.27,0,0,0,1.1-.08l.32-.17.11-.08h0l-.54-.55-.54-.55h0a.62.62,0,0,1-.33,0c-.42-.06-1.31-.41-2.78-1.87ZM7.16,1.44A2.89,2.89,0,0,0,3.11.81l-.3.25L3.89,2.15a1.36,1.36,0,0,1,1.92.11.39.39,0,0,1,.08.1ZM1.8,4.82a1.42,1.42,0,0,1,.46-1.06L1.2,2.66A3,3,0,0,0,.26,4.9ZM16.9,17.19a1.48,1.48,0,0,1-.89.46l.14,1.53a3,3,0,0,0,1.83-.9ZM8.26,6.9A2.84,2.84,0,0,0,8.5,3.17l-1.24.92A1.29,1.29,0,0,1,7.17,5.8ZM18,13.62a1.34,1.34,0,0,1,.6,1.8,1.18,1.18,0,0,1-.23.32l1.09,1.09a2.88,2.88,0,0,0-.06-4.07,2.61,2.61,0,0,0-.72-.51Zm-3.53-.87a1.32,1.32,0,0,1,1.57-.19l.68-1.31a2.88,2.88,0,0,0-3.39.46Z" fill="#3a3a3a" stroke="#3a3a3a" stroke-miterlimit="10" stroke-width="0.5"/></svg>