<svg id="Layer_1" data-name="Layer 1" xmlns="http://www.w3.org/2000/svg" viewBox="0 0 22 22"><title>post-comments</title><path d="M19,1H3a1.93,1.93,0,0,0-1.4.56A2,2,0,0,0,1,2.94V14.57A2,2,0,0,0,1.6,16a2,2,0,0,0,1.4.55H8.53a2.15,2.15,0,0,1,.9.2L17.5,21l-.07-6.43h2A1.51,1.51,0,0,0,21,13.09V2.94a2,2,0,0,0-.6-1.38A1.93,1.93,0,0,0,19,1Z" fill="none" stroke="#3a3a3a" stroke-linecap="round" stroke-linejoin="round" stroke-width="2"/><path d="M5.29,5.64a1.08,1.08,0,1,0,0,2.15ZM16.71,7.79a1.08,1.08,0,1,0,0-2.15ZM5.29,9.93a1.07,1.07,0,1,0,0,2.14Zm8.57,2.14a1.07,1.07,0,0,0,0-2.14ZM5.29,7.79H16.71V5.64H5.29Zm0,4.28h8.57V9.93H5.29Z" fill="#3a3a3a"/></svg>