<svg id="Layer_1" data-name="Layer 1" xmlns="http://www.w3.org/2000/svg" viewBox="0 0 20.5 24.79"><title>post-timeline</title><path d="M19.54,13.82H11V11h4.29a.71.71,0,0,0,.71-.71V4.54a.71.71,0,0,0-.71-.72H11V1A.71.71,0,0,0,9.54,1V3.82H5.25a.71.71,0,0,0-.71.72v5.71a.71.71,0,0,0,.71.71H9.54v2.86H1a.71.71,0,0,0-.71.72v5.71A.71.71,0,0,0,1,21H9.54v2.86a.71.71,0,1,0,1.42,0V21h8.58a.71.71,0,0,0,.71-.71V14.54A.71.71,0,0,0,19.54,13.82ZM6,9.54V5.25h8.58V9.54Zm12.86,10H1.68V15.25H18.82Z" fill="#3a3a3a" stroke="#3a3a3a" stroke-miterlimit="10" stroke-width="0.5"/></svg>