<svg id="Layer_1" data-name="Layer 1" xmlns="http://www.w3.org/2000/svg" viewBox="0 0 20.3 21.84"><title>prebuilt-block</title><path d="M9.83.22a.79.79,0,0,1,.64,0L19.7,4.43a.77.77,0,0,1,.45.72V15.66a.77.77,0,0,1-.39.66l-9.23,5.27a.79.79,0,0,1-.76,0L.54,16.32a.77.77,0,0,1-.39-.66V5.15a.77.77,0,0,1,.45-.7ZM1.69,6.37l7.69,3.78v9.43L1.69,15.21ZM10.92,19.6l7.69-4.39V6.37l-7.69,3.78ZM10.15,8.83l7.44-3.68L10.15,1.76,2.71,5.15Z" fill="#3a3a3a" stroke="#3a3a3a" stroke-miterlimit="10" stroke-width="0.3" fill-rule="evenodd"/></svg>