<svg id="Layer_1" data-name="Layer 1" xmlns="http://www.w3.org/2000/svg" viewBox="0 0 20.53 20.47"><title>price-table</title><path d="M2.62,3.08V4.24A3,3,0,0,0,1.26,5a3.51,3.51,0,0,0-.91,2.1,27.79,27.79,0,0,0-.09,3.16v.1a26.86,26.86,0,0,0,.11,3.11,3.56,3.56,0,0,0,.89,2,3.08,3.08,0,0,0,1.33.74v1.16a2.88,2.88,0,0,0,1.67,2.51,3.07,3.07,0,0,0,1.18.3h9.68a2.91,2.91,0,0,0,2.5-1.62,2.72,2.72,0,0,0,.3-1.18V16.26a3,3,0,0,0,1.34-.75,3.4,3.4,0,0,0,.91-2.1,23,23,0,0,0,.09-3.11v-.05a23,23,0,0,0-.11-3.11A3.38,3.38,0,0,0,19.26,5a3,3,0,0,0-1.33-.74V3.09a2.72,2.72,0,0,0-.3-1.18A2.94,2.94,0,0,0,16.26.58,2.92,2.92,0,0,0,15.1.25H5.42A3,3,0,0,0,4.26.58,3.05,3.05,0,0,0,2.92,1.9,3,3,0,0,0,2.62,3.08ZM15,1.67H5.53a1.92,1.92,0,0,0-.66.15,1.68,1.68,0,0,0-.71.71A2,2,0,0,0,4,3.25v.82H16.57V3.25a1.52,1.52,0,0,0-.86-1.38A1.62,1.62,0,0,0,15,1.67Zm1.55,14.81c-.7.05-1.53.05-2.51.05H6.49c-1,0-1.81,0-2.51-.05v.82a1.92,1.92,0,0,0,.15.67,1.68,1.68,0,0,0,.71.71,1.92,1.92,0,0,0,.66.15H15a1.82,1.82,0,0,0,.66-.15,1.52,1.52,0,0,0,.86-1.38A4.67,4.67,0,0,0,16.54,16.48Zm.41-11a24.93,24.93,0,0,0-3-.09H6.54a25.06,25.06,0,0,0-3,.09A2.09,2.09,0,0,0,2.26,6a2.17,2.17,0,0,0-.51,1.27q-.12,1.5-.09,3t.09,3a2.17,2.17,0,0,0,.51,1.27,2.08,2.08,0,0,0,1.3.52,25.06,25.06,0,0,0,3,.09H14A24.93,24.93,0,0,0,17,15a2.06,2.06,0,0,0,1.3-.52,2,2,0,0,0,.52-1.3,25.06,25.06,0,0,0,.09-3,25.06,25.06,0,0,0-.09-3A2,2,0,0,0,18.26,6,2.09,2.09,0,0,0,17,5.46Z" fill="#3a3a3a" stroke="#3a3a3a" stroke-miterlimit="10" stroke-width="0.5" fill-rule="evenodd"/></svg>