<svg id="Layer_1" data-name="Layer 1" xmlns="http://www.w3.org/2000/svg" viewBox="0 0 21 20.43"><title>price-list</title><path d="M20,10H6.87" fill="none" stroke="#3a3a3a" stroke-linecap="round" stroke-linejoin="round" stroke-width="2"/><path d="M20,17.48H6.87" fill="none" stroke="#3a3a3a" stroke-linecap="round" stroke-linejoin="round" stroke-width="2"/><path d="M20,2.47H6.87" fill="none" stroke="#3a3a3a" stroke-linecap="round" stroke-linejoin="round" stroke-width="2"/><path d="M2,5.29V1.21H1.89L.61,2.07V.92L2,0H3.3V5.29Z" fill="#3a3a3a" fill-rule="evenodd"/><path d="M.12,9.17A1.86,1.86,0,0,1,2.2,7.36c1.22,0,2,.66,2,1.57,0,.62-.28,1-1.12,1.8l-1,.94v.07H4.21v1h-4v-.9l1.89-1.71c.66-.6.77-.82.77-1.14a.67.67,0,0,0-.72-.67.75.75,0,0,0-.78.8ZM1.45,18v-.91h.68a.66.66,0,0,0,.74-.64.64.64,0,0,0-.73-.62.7.7,0,0,0-.79.68H.13c0-1,.82-1.69,2.08-1.69s1.91.65,1.91,1.44a1.19,1.19,0,0,1-1,1.19v.07a1.25,1.25,0,0,1,1.2,1.28c0,.94-.9,1.59-2.17,1.59S.05,19.76,0,18.72H1.28c0,.4.35.65.86.65s.82-.26.82-.66S2.65,18,2.13,18Z" fill="#3a3a3a" fill-rule="evenodd"/></svg>