<svg id="Layer_1" data-name="Layer 1" xmlns="http://www.w3.org/2000/svg" viewBox="0 0 22 22"><title>product-rating</title><path d="M8.15,4.41C9.42,2.14,10.05,1,11,1s1.58,1.14,2.85,3.41l.32.59A3.65,3.65,0,0,0,15,6.18a3.5,3.5,0,0,0,1.32.45l.64.14c2.46.56,3.69.84,4,1.78s-.54,1.92-2.22,3.88l-.43.51a3.6,3.6,0,0,0-.83,1.18,4,4,0,0,0,0,1.46l.07.67c.25,2.62.38,3.93-.39,4.51s-1.91,0-4.22-1l-.59-.27A3.5,3.5,0,0,0,11,19a3.5,3.5,0,0,0-1.33.46l-.59.27c-2.31,1.06-3.46,1.59-4.22,1s-.64-1.89-.39-4.51l.06-.67a3.87,3.87,0,0,0,0-1.46,3.6,3.6,0,0,0-.83-1.18l-.43-.51C1.6,10.47.76,9.49,1.06,8.55S2.58,7.33,5,6.77l.64-.14A3.5,3.5,0,0,0,7,6.18,3.65,3.65,0,0,0,7.83,5Z" fill="none" stroke="#3a3a3a" stroke-width="2"/></svg>