<svg id="Layer_1" data-name="Layer 1" xmlns="http://www.w3.org/2000/svg" viewBox="0 0 20.6 20.6"><title>product-tabs</title><path d="M.3,3.87A3.57,3.57,0,0,1,3.87.3H16.73A3.57,3.57,0,0,1,20.3,3.87V16.73a3.57,3.57,0,0,1-3.57,3.57H3.87A3.57,3.57,0,0,1,.3,16.73Zm18.57.72V3.87a2.14,2.14,0,0,0-2.14-2.14H8.87V3.87a.72.72,0,0,0,.72.72ZM7.44,1.73H3.87A2.14,2.14,0,0,0,1.73,3.87V16.73a2.14,2.14,0,0,0,2.14,2.14H16.73a2.14,2.14,0,0,0,2.14-2.14V6H9.59A2.14,2.14,0,0,1,7.44,3.87Z" fill="#3a3a3a" stroke="#3a3a3a" stroke-miterlimit="10" stroke-width="0.6"/></svg>