<svg id="Capa_1" data-name="Capa 1" xmlns="http://www.w3.org/2000/svg" viewBox="0 0 20.75 20.75"><title>advance-breadcrumb</title><path d="M7.16,15.43a.42.42,0,0,1-.36-.2A.42.42,0,0,1,7,14.67l7.44-4.3L7,6.08a.42.42,0,0,1-.15-.56.42.42,0,0,1,.56-.15L15.41,10a.41.41,0,0,1,0,.71l-8,4.65A.46.46,0,0,1,7.16,15.43Z" fill="#3a3a3a" stroke="#3a3a3a" stroke-miterlimit="10" stroke-width="0.75"/><path d="M10.37,20.37a10,10,0,1,1,7.08-2.92A10,10,0,0,1,10.37,20.37Zm0-19.18a9.18,9.18,0,1,0,6.5,2.69A9.15,9.15,0,0,0,10.37,1.19Z" fill="#3a3a3a" stroke="#3a3a3a" stroke-miterlimit="10" stroke-width="0.75"/></svg>