<svg id="Layer_1" data-name="Layer 1" xmlns="http://www.w3.org/2000/svg" viewBox="0 0 22 28.15"><title>product-stock</title><path d="M4.08,1V5.62" fill="none" stroke="#3a3a3a" stroke-linecap="round" stroke-width="2"/><path d="M4.08,17.92v6.16" fill="none" stroke="#3a3a3a" stroke-linecap="round" stroke-width="2"/><path d="M3,5.62a2,2,0,0,0-2,2v8.3a2,2,0,0,0,2,2H5.15a2,2,0,0,0,2-2V7.62a2,2,0,0,0-2-2Z" fill="none" stroke="#3a3a3a" stroke-width="2"/><path d="M17.92,5.62v7.69" fill="none" stroke="#3a3a3a" stroke-linecap="round" stroke-width="2"/><path d="M17.92,21v6.15" fill="none" stroke="#3a3a3a" stroke-linecap="round" stroke-width="2"/><path d="M16.85,13.31a2,2,0,0,0-2,2V19a2,2,0,0,0,2,2H19a2,2,0,0,0,2-2V15.31a2,2,0,0,0-2-2Z" fill="none" stroke="#3a3a3a" stroke-width="2"/></svg>