<svg id="Layer_1" data-name="Layer 1" xmlns="http://www.w3.org/2000/svg" viewBox="0 0 20 20"><title>post-thumbnail</title><g id="Page-1"><g id="Dribbble-Light-Preview"><g id="icons"><path d="M12,10a1,1,0,1,1,1,1,1,1,0,0,1-1-1Zm.75,2L16,16H4l4.52-6,2.83,4ZM18,17c0,.55-.25,1-.8,1H3.2A1.19,1.19,0,0,1,2,17V3A1.19,1.19,0,0,1,3.2,2h4c.55,0,.8.45.8,1V4a2.19,2.19,0,0,0,2.2,2h7c.55,0,.8.45.8,1Zm.2-13h-7A1.19,1.19,0,0,1,10,3V2A1.84,1.84,0,0,0,8.2,0h-6A2.19,2.19,0,0,0,0,2V18a2.19,2.19,0,0,0,2.2,2h16A1.84,1.84,0,0,0,20,18V6a1.84,1.84,0,0,0-1.8-2Z" fill="#3a3a3a" fill-rule="evenodd"/></g></g></g></svg>