<svg id="Layer_1" data-name="Layer 1" xmlns="http://www.w3.org/2000/svg" viewBox="0 0 20.57 20.25"><title>product-add-to-cart</title><g id="Page-1"><g id="Icon-Set"><path id="cart" d="M15.25,17.5a1.25,1.25,0,1,0,1.25,1.25,1.25,1.25,0,0,0-1.25-1.25ZM9,17.5a1.25,1.25,0,1,0,1.25,1.25A1.25,1.25,0,0,0,9,17.5Zm8.13-4.75A1.25,1.25,0,0,1,15.88,14H9a1.25,1.25,0,0,1-1.25-1.25l-1-6.25h12l-1.56,6.25ZM6.48,5.25,4.92.25h-4a.63.63,0,1,0,0,1.25H4L5.26,5.25h0l1.25,7.5A2.5,2.5,0,0,0,9,15.25h6.88a2.5,2.5,0,0,0,2.5-2.5l1.87-7.5Z" fill="#3a3a3a" stroke="#3a3a3a" stroke-miterlimit="10" stroke-width="0.5" fill-rule="evenodd"/></g></g></svg>