<svg id="Layer_1" data-name="Layer 1" xmlns="http://www.w3.org/2000/svg" viewBox="0 0 22 21.09"><title>rate-us</title><path d="M10.37,1.46a.66.66,0,0,1,1.26,0l1.91,5.86a.65.65,0,0,0,.63.46h6.16A.66.66,0,0,1,20.72,9l-5,3.63a.65.65,0,0,0-.24.74l1.9,5.86a.66.66,0,0,1-1,.75l-5-3.63a.66.66,0,0,0-.78,0L5.62,20a.66.66,0,0,1-1-.75l1.9-5.86a.65.65,0,0,0-.24-.74L1.28,9a.66.66,0,0,1,.39-1.2H7.83a.65.65,0,0,0,.63-.46Z" fill="none" stroke="#3a3a3a" stroke-linecap="round" stroke-linejoin="round" stroke-width="2"/></svg>