<svg id="Layer_1" data-name="Layer 1" xmlns="http://www.w3.org/2000/svg" viewBox="0 0 20 11.67"><title>reading-progress-bar</title><path d="M0,4.17A4.17,4.17,0,0,1,4.17,0H15.83A4.17,4.17,0,0,1,20,4.17V7.5a4.17,4.17,0,0,1-4.17,4.17H4.17A4.17,4.17,0,0,1,0,7.5Zm4.17-2.5a2.5,2.5,0,0,0-2.5,2.5V7.5A2.5,2.5,0,0,0,4.17,10H15.83a2.5,2.5,0,0,0,2.5-2.5V4.17a2.5,2.5,0,0,0-2.5-2.5ZM8.33,5a1.67,1.67,0,0,1,3.34,0V6.67a1.67,1.67,0,0,1-3.34,0ZM5,3.33A1.67,1.67,0,0,0,3.33,5V6.67a1.67,1.67,0,0,0,3.34,0V5A1.67,1.67,0,0,0,5,3.33Z" fill="#3a3a3a" fill-rule="evenodd"/></svg>