<svg id="Layer_1" data-name="Layer 1" xmlns="http://www.w3.org/2000/svg" viewBox="0 0 20.3 19.4"><title>sharing-buttons</title><path d="M17.6,12.31h-.05a.72.72,0,0,1-.67-.77V11a6.84,6.84,0,0,0-4.57-6.49.73.73,0,0,1-.46-.92.74.74,0,0,1,.92-.46A8.31,8.31,0,0,1,18.34,11c0,.23,0,.46,0,.69A.72.72,0,0,1,17.6,12.31Z" fill="#3a3a3a" stroke="#3a3a3a" stroke-miterlimit="10" stroke-width="0.3"/><path d="M2.61,12.36a.73.73,0,0,1-.72-.63c0-.24,0-.5,0-.74a8.33,8.33,0,0,1,5.57-7.9.72.72,0,0,1,.92.45.74.74,0,0,1-.45.93h0A6.84,6.84,0,0,0,3.3,11v.6a.71.71,0,0,1-.64.79H2.61Z" fill="#3a3a3a" stroke="#3a3a3a" stroke-miterlimit="10" stroke-width="0.3"/><path d="M10.1,19.25a8.07,8.07,0,0,1-6-2.6.72.72,0,0,1,1-1l.05.05a6.68,6.68,0,0,0,4.95,2.15,6.78,6.78,0,0,0,5-2.2.72.72,0,1,1,1.1.94l0,0A8.18,8.18,0,0,1,10.1,19.25Z" fill="#3a3a3a" stroke="#3a3a3a" stroke-miterlimit="10" stroke-width="0.3"/><path d="M10.11,6.58A3.22,3.22,0,1,1,13.3,3.34v0A3.21,3.21,0,0,1,10.11,6.58Zm0-5a1.77,1.77,0,1,0,1.73,1.81v0a1.73,1.73,0,0,0-1.7-1.77Z" fill="#3a3a3a" stroke="#3a3a3a" stroke-miterlimit="10" stroke-width="0.3"/><path d="M17,17.22A3.22,3.22,0,1,1,20.15,14v0A3.21,3.21,0,0,1,17,17.22Zm0-5A1.77,1.77,0,1,0,18.69,14v0A1.73,1.73,0,0,0,17,12.23Z" fill="#3a3a3a" stroke="#3a3a3a" stroke-miterlimit="10" stroke-width="0.3"/><path d="M3.38,17.22A3.22,3.22,0,1,1,6.58,14v0A3.21,3.21,0,0,1,3.38,17.22Zm0-5A1.77,1.77,0,1,0,5.12,14v0a1.73,1.73,0,0,0-1.7-1.77Z" fill="#3a3a3a" stroke="#3a3a3a" stroke-miterlimit="10" stroke-width="0.3"/></svg>