<svg id="Layer_1" data-name="Layer 1" xmlns="http://www.w3.org/2000/svg" viewBox="0 0 20 20"><title>site-logo</title><path d="M10,20A10.08,10.08,0,0,0,20,10,10.08,10.08,0,0,0,10,0,10.06,10.06,0,0,0,0,10,10.08,10.08,0,0,0,10,20Zm0-1.67A8.33,8.33,0,1,1,18.33,10,8.29,8.29,0,0,1,10,18.33Zm0-3.44a.7.7,0,0,0,.75-.8l-.08-2.86,2.58,1.68a.88.88,0,0,0,.49.14.77.77,0,0,0,.3-1.47l-2.71-1.52,2.71-1.5a.76.76,0,0,0,.45-.7.75.75,0,0,0-.75-.78.88.88,0,0,0-.49.14L10.69,8.86l.08-2.93A.71.71,0,0,0,10,5.11a.74.74,0,0,0-.79.82l.08,2.93L6.73,7.23a1,1,0,0,0-.49-.14.75.75,0,0,0-.75.78.76.76,0,0,0,.44.7l2.7,1.49L5.94,11.57A.77.77,0,0,0,6.24,13a.88.88,0,0,0,.49-.14l2.58-1.67-.08,2.86A.73.73,0,0,0,10,14.89Z" fill="#3a3a3a"/></svg>