<svg id="Layer_1" data-name="Layer 1" xmlns="http://www.w3.org/2000/svg" viewBox="0 0 20 18"><title>site-builder</title><g id="ic_fluent_web_asset_24_regular" data-name="ic fluent web asset 24 regular"><path d="M16.75,0A3.26,3.26,0,0,1,20,3.25v11.5A3.26,3.26,0,0,1,16.75,18H3.25A3.26,3.26,0,0,1,0,14.75V3.25A3.26,3.26,0,0,1,3.25,0Zm0,1.5H3.25A1.75,1.75,0,0,0,1.5,3.25v11.5A1.75,1.75,0,0,0,3.25,16.5h13.5a1.75,1.75,0,0,0,1.75-1.75V3.25A1.75,1.75,0,0,0,16.75,1.5Zm-12,2h10.5A.75.75,0,0,1,15.36,5H4.75a.75.75,0,0,1-.1-1.49Z" fill="#3a3a3a"/></g></svg>