<svg id="Layer_1" data-name="Layer 1" xmlns="http://www.w3.org/2000/svg" viewBox="0 0 11.47 11.52"><title>testimonial</title><path d="M10.9.67A1.81,1.81,0,0,0,9.58.15H2A1.83,1.83,0,0,0,.67.67,2.13,2.13,0,0,0,.15,2V6.66A1.88,1.88,0,0,0,.78,8a1.73,1.73,0,0,0,1.31.52h.69L1.62,10.71a.41.41,0,0,0,.09.52q.27.29.51,0L5.9,8.55H9.5A1.76,1.76,0,0,0,10.78,8a2,2,0,0,0,.52-1.37V2A1.58,1.58,0,0,0,10.9.67m-.6.6a1,1,0,0,1,.25.71V6.66a1,1,0,0,1-.25.68,1.16,1.16,0,0,1-.71.36H5.78l-.25.08L3.26,9.51l.52-1.13a.38.38,0,0,0,0-.43c-.08-.17-.16-.17-.33-.17H2a.81.81,0,0,1-.71-.35A1,1,0,0,1,.9,6.74V2a.82.82,0,0,1,.33-.71A1.14,1.14,0,0,1,1.94,1h7.6a1.27,1.27,0,0,1,.75.25Z" fill="#3a3a3a" stroke="#3a3a3a" stroke-miterlimit="10" stroke-width="0.3"/></svg>