<svg id="Layer_1" data-name="Layer 1" xmlns="http://www.w3.org/2000/svg" viewBox="0 0 20.5 18.89"><title>widget-setting</title><path d="M13.26.25a4,4,0,0,1,3.45,2l3,5.21a4,4,0,0,1,0,4l-3,5.22a4,4,0,0,1-3.45,2h-6a4,4,0,0,1-3.45-2l-3-5.22a4,4,0,0,1,0-4l3-5.21a4,4,0,0,1,3.45-2Zm0,1.33h-6A2.64,2.64,0,0,0,5,2.78l-.08.12-3,5.22a2.63,2.63,0,0,0-.07,2.51l.07.14,3,5.21a2.66,2.66,0,0,0,2.15,1.33h6.17a2.64,2.64,0,0,0,2.22-1.2l.08-.13,3-5.21a2.63,2.63,0,0,0,.07-2.51l-.07-.14-3-5.22a2.67,2.67,0,0,0-2.15-1.32Zm-3,3.88a4,4,0,1,1-4,4A4,4,0,0,1,10.25,5.46Zm0,1.33A2.66,2.66,0,1,0,12.9,9.44,2.65,2.65,0,0,0,10.25,6.79Z" fill="#3a3a3a" stroke="#3a3a3a" stroke-miterlimit="10" stroke-width="0.5"/></svg>