<?xml version="1.0" encoding="utf-8"?>
<!-- Generator: Adobe Illustrator 23.0.0, SVG Export Plug-In . SVG Version: 6.00 Build 0)  -->
<svg version="1.1" id="Layer_1" xmlns="http://www.w3.org/2000/svg" xmlns:xlink="http://www.w3.org/1999/xlink" x="0px" y="0px"
	 viewBox="0 0 314.6 77.9" style="enable-background:new 0 0 314.6 77.9;" xml:space="preserve">
<g id="Objects">
	<g>
		<ellipse style="fill:#0152A9;" cx="38.6" cy="38.6" rx="38.6" ry="38.6"/>
		<g>
			<polygon style="fill:#ED581C;" points="51,51.6 38,51.6 26.2,25.5 39.2,25.5 			"/>
			<polygon style="fill:#FDFDFE;" points="38,51.6 51.1,51.6 62.9,25.5 49.8,25.5 			"/>
			<polygon style="fill:#FDFDFE;" points="14.4,51.6 27.4,51.6 39.3,25.5 26.2,25.5 			"/>
		</g>
	</g>
</g>
<g style="enable-background:new    ;">
	<path d="M126.5,60.4h-11.4L96.6,28.3h-0.3c0.1,1.3,0.1,2.7,0.2,4s0.1,2.7,0.2,4c0.1,1.3,0.1,2.7,0.2,4v20h-8V18h11.3l18.4,31.8h0.2
		c0-1.3-0.1-2.6-0.1-3.9c-0.1-1.3-0.1-2.6-0.2-3.9c0-1.3-0.1-2.6-0.1-3.9V18h8.1V60.4z"/>
	<path d="M149.8,27.4c3,0,5.6,0.6,7.7,1.7c2.2,1.2,3.8,2.8,5,5s1.8,4.9,1.8,8v4.3h-20.9c0.1,2.5,0.8,4.5,2.2,5.9
		c1.4,1.4,3.4,2.1,5.8,2.1c2.1,0,4-0.2,5.7-0.6c1.7-0.4,3.5-1.1,5.3-1.9v6.8c-1.6,0.8-3.3,1.4-5,1.7s-3.9,0.6-6.4,0.6
		c-3.2,0-6.1-0.6-8.6-1.8c-2.5-1.2-4.5-3-5.9-5.5c-1.4-2.5-2.1-5.5-2.1-9.3c0-3.8,0.6-6.9,1.9-9.5c1.3-2.5,3.1-4.4,5.4-5.7
		C144.1,28,146.8,27.4,149.8,27.4z M149.9,33.7c-1.7,0-3.1,0.6-4.3,1.7c-1.1,1.1-1.8,2.8-2,5.2h12.4c0-1.3-0.3-2.5-0.7-3.5
		c-0.5-1-1.1-1.8-2-2.4C152.4,34,151.3,33.7,149.9,33.7z"/>
	<path d="M198.2,60.4l-2.5-11.3c-0.1-0.7-0.4-1.7-0.7-3c-0.3-1.3-0.6-2.7-1-4.3c-0.4-1.5-0.7-2.9-1-4.2c-0.3-1.3-0.5-2.2-0.7-2.8
		h-0.3c-0.1,0.6-0.3,1.5-0.6,2.8c-0.3,1.3-0.6,2.7-1,4.2c-0.4,1.5-0.7,3-1,4.3c-0.3,1.3-0.5,2.4-0.7,3.1l-2.6,11.2h-9.5L167.5,28
		h8.8l3.7,14.4c0.3,1,0.5,2.2,0.7,3.6s0.4,2.7,0.6,4c0.2,1.3,0.3,2.3,0.4,3.1h0.2c0-0.6,0.1-1.3,0.2-2.2c0.1-0.9,0.3-1.9,0.4-2.9
		s0.3-1.9,0.5-2.7c0.1-0.8,0.3-1.3,0.3-1.6l4-15.5h9.7l3.8,15.5c0.1,0.6,0.3,1.5,0.5,2.7c0.2,1.2,0.4,2.5,0.6,3.8s0.3,2.3,0.3,3h0.2
		c0.1-0.7,0.2-1.6,0.4-2.9s0.4-2.7,0.7-4.1c0.3-1.4,0.5-2.6,0.8-3.6l3.9-14.4h8.7l-9.3,32.4H198.2z"/>
	<path d="M245,50.8c0,2.2-0.5,4.1-1.6,5.6s-2.6,2.7-4.6,3.5c-2.1,0.8-4.6,1.2-7.7,1.2c-2.3,0-4.2-0.1-5.8-0.4s-3.2-0.8-4.9-1.5v-7.3
		c1.8,0.8,3.7,1.4,5.7,2c2,0.5,3.8,0.8,5.3,0.8c1.7,0,3-0.3,3.7-0.8c0.7-0.5,1.1-1.2,1.1-2c0-0.5-0.2-1-0.4-1.5
		c-0.3-0.4-0.9-0.9-1.9-1.5s-2.5-1.3-4.6-2.2c-2-0.8-3.7-1.7-5-2.6c-1.3-0.9-2.3-1.9-2.9-3.1c-0.6-1.2-0.9-2.7-0.9-4.5
		c0-3,1.2-5.3,3.5-6.8c2.3-1.5,5.4-2.3,9.4-2.3c2,0,3.9,0.2,5.8,0.6c1.8,0.4,3.7,1.1,5.6,1.9l-2.7,6.4c-1.6-0.7-3.1-1.3-4.5-1.7
		c-1.4-0.4-2.9-0.7-4.3-0.7c-1.3,0-2.3,0.2-2.9,0.5c-0.7,0.3-1,0.9-1,1.6c0,0.5,0.2,1,0.5,1.4s1,0.9,2,1.3s2.4,1.1,4.3,1.9
		c1.8,0.8,3.4,1.5,4.8,2.4c1.4,0.8,2.4,1.8,3.1,3C244.7,47.3,245,48.9,245,50.8z"/>
	<path d="M265.1,61c-3.2,0-5.9-0.6-8.2-1.8c-2.3-1.2-4-3-5.2-5.4c-1.2-2.5-1.8-5.6-1.8-9.4c0-4,0.7-7.2,2-9.7
		c1.3-2.5,3.2-4.3,5.6-5.5s5.2-1.8,8.3-1.8c2.2,0,4.2,0.2,5.8,0.7c1.6,0.4,3.1,1,4.3,1.6l-2.6,6.8c-1.4-0.6-2.7-1-3.9-1.4
		c-1.2-0.4-2.4-0.5-3.6-0.5c-1.5,0-2.8,0.4-3.9,1.1c-1,0.7-1.8,1.8-2.3,3.3c-0.5,1.5-0.8,3.3-0.8,5.5c0,2.1,0.3,3.9,0.8,5.3
		c0.5,1.4,1.3,2.5,2.3,3.1c1,0.7,2.3,1,3.7,1c1.8,0,3.5-0.2,4.9-0.7c1.4-0.5,2.8-1.2,4.2-2.1v7.6c-1.4,0.9-2.8,1.5-4.2,1.8
		C269.2,60.8,267.4,61,265.1,61z"/>
	<path d="M312,44.2c0,2.7-0.4,5.1-1.1,7.2c-0.7,2.1-1.8,3.9-3.2,5.3c-1.4,1.4-3,2.5-5,3.3c-1.9,0.7-4.1,1.1-6.6,1.1
		c-2.3,0-4.4-0.4-6.3-1.1c-1.9-0.7-3.6-1.8-5-3.3c-1.4-1.4-2.5-3.2-3.2-5.3c-0.8-2.1-1.1-4.5-1.1-7.2c0-3.6,0.6-6.6,1.9-9.1
		c1.3-2.5,3.1-4.4,5.5-5.7c2.4-1.3,5.2-1.9,8.4-1.9c3,0,5.7,0.6,8.1,1.9c2.3,1.3,4.2,3.2,5.5,5.7C311.3,37.5,312,40.6,312,44.2z
		 M289.5,44.2c0,2.1,0.2,3.9,0.7,5.4c0.5,1.4,1.2,2.5,2.2,3.3s2.3,1.1,3.9,1.1c1.6,0,2.8-0.4,3.8-1.1c1-0.7,1.7-1.8,2.1-3.3
		c0.5-1.5,0.7-3.2,0.7-5.4c0-2.1-0.2-3.9-0.7-5.4c-0.5-1.4-1.2-2.5-2.2-3.2s-2.3-1.1-3.9-1.1c-2.3,0-4,0.8-5.1,2.4
		C290.1,38.5,289.5,40.9,289.5,44.2z"/>
</g>
</svg>
