<svg id="Layer_1" data-name="Layer 1" xmlns="http://www.w3.org/2000/svg" viewBox="0 0 20 22"><title>getting-start-tab</title><path d="M2.19,10.38A2.07,2.07,0,0,0,2,11v8a1,1,0,0,0,1,1H6V14a2,2,0,0,1,2-2h4a2,2,0,0,1,2,2v6h3a1,1,0,0,0,1-1V11a2.07,2.07,0,0,0-.19-.62,9.91,9.91,0,0,0-.66-1.28,25.28,25.28,0,0,0-2.29-3.21,20.9,20.9,0,0,0-2.81-2.83,8.45,8.45,0,0,0-1.24-.82A2.07,2.07,0,0,0,10,2a2.07,2.07,0,0,0-.81.24A8.45,8.45,0,0,0,8,3.06,20.9,20.9,0,0,0,5.14,5.89,25.28,25.28,0,0,0,2.85,9.1,9.91,9.91,0,0,0,2.19,10.38ZM8.31.45A3.87,3.87,0,0,1,10,0a3.87,3.87,0,0,1,1.69.45,8.78,8.78,0,0,1,1.6,1.05,21.7,21.7,0,0,1,3.1,3.11,26.8,26.8,0,0,1,2.49,3.48,12.27,12.27,0,0,1,.78,1.52A3.88,3.88,0,0,1,20,11v8a3,3,0,0,1-3,3H14a2,2,0,0,1-2-2V14H8v6a2,2,0,0,1-2,2H3a3,3,0,0,1-3-3V11A3.88,3.88,0,0,1,.34,9.61a12.27,12.27,0,0,1,.78-1.52A26.8,26.8,0,0,1,3.61,4.61,21.7,21.7,0,0,1,6.71,1.5,8.78,8.78,0,0,1,8.31.45Z" fill="#5729d9" fill-rule="evenodd"/></svg>