<?xml version="1.0" encoding="UTF-8"?>
<svg id="Layer_1" data-name="Layer 1" xmlns="http://www.w3.org/2000/svg" version="1.1" xmlns:xlink="http://www.w3.org/1999/xlink" viewBox="0 0 21.7 24">
  <defs>
    <style>
      .cls-1 {
        stroke: url(#linear-gradient-2);
      }

      .cls-1, .cls-2 {
        fill: none;
        stroke-linecap: round;
        stroke-linejoin: round;
        stroke-width: 1.7px;
      }

      .cls-2 {
        stroke: url(#linear-gradient);
      }
    </style>
    <linearGradient id="linear-gradient" x1="7.1" y1="12" x2="14.6" y2="12" gradientUnits="userSpaceOnUse">
      <stop offset="0" stop-color="#5729d9"/>
      <stop offset="1" stop-color="#bc1866"/>
    </linearGradient>
    <linearGradient id="linear-gradient-2" x1="0" y1="12" x2="21.7" y2="12" xlink:href="#linear-gradient"/>
  </defs>
  <g id="Setting">
    <path class="cls-2" d="M10.9,9.1c1.6,0,2.9,1.3,2.9,2.9,0,1.6-1.3,2.9-2.9,2.9s-2.9-1.3-2.9-2.9c0,0,0,0,0,0,0-1.6,1.3-2.9,2.9-2.9Z"/>
    <path class="cls-1" d="M20.5,6.4h0c-.8-1.4-2.6-1.9-4-1.1,0,0,0,0,0,0-.9.5-2,.2-2.5-.7-.2-.3-.2-.6-.2-.9,0-1.6-1.3-2.9-2.9-2.9h0c-1.6,0-2.9,1.3-2.9,2.9h0c0,1-.8,1.8-1.8,1.8-.3,0-.6,0-.9-.2-1.4-.8-3.2-.4-4,1,0,0,0,0,0,0-.8,1.4-.3,3.2,1.1,4,.9.5,1.2,1.6.7,2.5-.2.3-.4.5-.7.7-1.4.8-1.9,2.6-1.1,4,.8,1.4,2.6,1.9,3.9,1.1,0,0,0,0,0,0h0c.9-.5,2-.2,2.5.7.2.3.2.6.2.9h0c0,1.6,1.3,2.9,2.9,2.9h0c1.6,0,2.9-1.3,2.9-2.9h0c0-1,.8-1.8,1.8-1.8.3,0,.6,0,.9.2,1.4.8,3.2.4,4-1,0,0,0,0,0,0,.8-1.4.3-3.2-1.1-4h0c-.9-.5-1.2-1.6-.7-2.5.2-.3.4-.5.7-.7,1.4-.8,1.9-2.6,1-4Z"/>
  </g>
</svg>