<svg id="Layer_1" data-name="Layer 1" xmlns="http://www.w3.org/2000/svg" viewBox="0 0 21.7 24.05"><title>global-setting-tab</title><g id="Setting"><path d="M10.85,9.09A2.94,2.94,0,1,1,7.91,12,2.94,2.94,0,0,1,10.85,9.09Z" fill="none" stroke="#5729d9" stroke-linecap="round" stroke-linejoin="round" stroke-width="1.7"/><path d="M20.46,6.44h0a2.9,2.9,0,0,0-4-1.07,1.82,1.82,0,0,1-2.72-1.59A2.92,2.92,0,0,0,10.85.85h0A2.92,2.92,0,0,0,7.94,3.78,1.82,1.82,0,0,1,5.22,5.37a2.9,2.9,0,0,0-4,1.07,2.94,2.94,0,0,0,1.07,4,1.84,1.84,0,0,1,0,3.17,2.94,2.94,0,0,0-1.07,4,2.9,2.9,0,0,0,4,1.08h0a1.81,1.81,0,0,1,2.72,1.58h0a2.92,2.92,0,0,0,2.91,2.93h0a2.92,2.92,0,0,0,2.91-2.93h0a1.81,1.81,0,0,1,2.72-1.58,2.9,2.9,0,0,0,4-1.08,2.94,2.94,0,0,0-1.07-4h0a1.84,1.84,0,0,1,0-3.17A2.94,2.94,0,0,0,20.46,6.44Z" fill="none" stroke="#5729d9" stroke-linecap="round" stroke-linejoin="round" stroke-width="1.7"/></g></svg>