<?xml version="1.0" encoding="utf-8"?>
<!-- Generator: Adobe Illustrator 23.0.0, SVG Export Plug-In . SVG Version: 6.00 Build 0)  -->
<svg version="1.1" id="Layer_1" xmlns="http://www.w3.org/2000/svg" xmlns:xlink="http://www.w3.org/1999/xlink" x="0px" y="0px"
	 viewBox="0 0 809.7 810" style="enable-background:new 0 0 809.7 810;" xml:space="preserve">
<style type="text/css">
	.st0{fill:#5729D9;stroke:#5729D9;stroke-width:10;stroke-miterlimit:10;}
</style>
<g>
	<path class="st0" d="M600.6,118.6c-24.2,0-46.9,9.4-64,26.5c-35.3,35.3-35.3,92.7,0,128c17.1,17.1,39.8,26.5,64,26.5
		c24.2,0,46.9-9.4,64-26.5c35.3-35.3,35.3-92.7,0-128C647.6,128.1,624.8,118.6,600.6,118.6z M629.7,238.2c-7.8,7.8-18.1,12-29,12
		s-21.3-4.3-29-12c-16-16-16-42.1,0-58.1c7.8-7.8,18.1-12,29-12s21.3,4.3,29,12C645.7,196.2,645.7,222.2,629.7,238.2z"/>
	<path class="st0" d="M733.8,76C688.1,30.2,627.2,5,562.5,5c-64.7,0-125.6,25.2-171.4,71c-69.6,69.6-89.9,173.5-52.9,263.4
		L5.3,672.3L5,804.7l238.4,0.3v-91.9h91.9v-91.9h91.9V514.8l43.2-43.2c29.1,11.9,60.5,18.1,92,18.1c64.7,0,125.6-25.2,171.4-71
		C828.3,324.2,828.3,170.5,733.8,76z M698.9,383.7c-36.4,36.4-84.9,56.5-136.4,56.5c-29.9,0-59.8-7-86.4-20.3l-16-8l-82.4,82.4v77.4
		h-91.9v91.9H194v91.9l-139.4-0.2l0.1-62.4l343.2-343.2l-8-16c-37.2-74.4-22.7-163.9,36.1-222.7c36.4-36.4,84.9-56.5,136.4-56.5
		s100,20.1,136.4,56.5C774.1,186.2,774.1,308.5,698.9,383.7z"/>
</g>
</svg>
