<svg id="Layer_1" data-name="Layer 1" xmlns="http://www.w3.org/2000/svg" xmlns:xlink="http://www.w3.org/1999/xlink" viewBox="0 0 20 20"><defs><linearGradient id="linear-gradient" y1="10" x2="20" y2="10" gradientUnits="userSpaceOnUse"><stop offset="0" stop-color="#5729d9"/><stop offset="1" stop-color="#bc1866"/></linearGradient></defs><title>need-help</title><path d="M10,18.33A8.33,8.33,0,1,0,1.67,10h0A8.33,8.33,0,0,0,10,18.33ZM10,20A10,10,0,1,0,0,10,10,10,0,0,0,10,20Zm.83-6.67V15H9.17V13.33ZM8.33,8.26a1.67,1.67,0,0,1,3.34,0A1.85,1.85,0,0,1,11,9.46a8.38,8.38,0,0,1-1.46,1.13l-.38.24V12.5h1.66v-.76a9,9,0,0,0,1.36-1.11,3.43,3.43,0,0,0,1.14-2.37,3.33,3.33,0,0,0-6.66,0Z" fill-rule="evenodd" fill="url(#linear-gradient)"/></svg>