<svg id="Layer_1" data-name="Layer 1" xmlns="http://www.w3.org/2000/svg" viewBox="0 0 20.1 21.64"><title>prebuilt-block-tab</title><path d="M9.73.12a.79.79,0,0,1,.64,0L19.6,4.33a.77.77,0,0,1,.45.72V15.56a.77.77,0,0,1-.39.66l-9.23,5.27a.79.79,0,0,1-.76,0L.44,16.22a.77.77,0,0,1-.39-.66V5.05a.77.77,0,0,1,.45-.7ZM1.59,6.27l7.69,3.78v9.43L1.59,15.11ZM10.8,19.5l7.69-4.39V6.27L10.8,10.05ZM10.05,8.73l7.44-3.68L10.05,1.66,2.61,5.05Z" fill="#5729d9" stroke="#5729d9" stroke-miterlimit="10" stroke-width="0.1" fill-rule="evenodd"/></svg>