<svg id="Layer_1" data-name="Layer 1" xmlns="http://www.w3.org/2000/svg" xmlns:xlink="http://www.w3.org/1999/xlink" viewBox="0 0 20 21.54"><defs><linearGradient id="linear-gradient" y1="10.77" x2="20" y2="10.77" gradientUnits="userSpaceOnUse"><stop offset="0" stop-color="#5729d9"/><stop offset="1" stop-color="#bc1866"/></linearGradient></defs><title>prebuilt-block</title><path d="M9.68.07a.79.79,0,0,1,.64,0l9.23,4.21A.77.77,0,0,1,20,5V15.51a.77.77,0,0,1-.39.66l-9.23,5.27a.79.79,0,0,1-.76,0L.39,16.17A.77.77,0,0,1,0,15.51V5a.78.78,0,0,1,.45-.7ZM1.54,6.22,9.23,10v9.43L1.54,15.06Zm9.21,13.23,7.69-4.39V6.22L10.75,10ZM10,8.68,17.44,5,10,1.61,2.56,5Z" transform="translate(0 0)" fill-rule="evenodd" fill="url(#linear-gradient)"/></svg>