<svg xmlns="http://www.w3.org/2000/svg" xmlns:xlink="http://www.w3.org/1999/xlink" id="uuid-fdbdf9f7-e09b-4e87-9290-8b3be00dea73" data-name="Layer_1" width="18" height="18" viewBox="0 0 18 18"><defs><linearGradient id="uuid-5a0df938-6823-4c54-bacd-c52114752ef2" x1="7.83" y1="11.04" x2="21.93" y2="10.51" gradientTransform="translate(0 20) scale(1 -1)" gradientUnits="userSpaceOnUse"><stop offset="0" stop-color="#bf1864"></stop><stop offset="1" stop-color="#bf1864"></stop></linearGradient></defs><g id="uuid-d76b3e82-5586-44be-a256-5ba29da13f7e" data-name="Component_1"><path id="uuid-e5bbca17-1d2b-4287-ab73-e86170eb98c9" data-name="Rectangle_1160" d="M9,0h0c4.97,0,9,4.03,9,9h0c0,4.97-4.03,9-9,9h0C4.03,18,0,13.97,0,9h0C0,4.03,4.03,0,9,0Z" fill="url(#uuid-5a0df938-6823-4c54-bacd-c52114752ef2)"></path><g><path id="uuid-be4cc88f-f201-4a10-91f0-b74d73253bdd" data-name="Vector" d="M13.75,5.84c-.1-.09-.22-.14-.34-.16-.13-.02-.26,0-.37.06l-2.17,1.01-1.26-2.39c-.06-.11-.15-.2-.25-.27-.11-.06-.23-.1-.35-.1s-.24.03-.35.1c-.11.06-.19.16-.25.27l-1.26,2.39-2.17-1.01c-.12-.05-.25-.07-.37-.06-.13.02-.25.07-.35.16-.1.09-.17.2-.21.33-.04.13-.05.26-.02.4l1.09,4.88c.02.09.06.18.11.26.05.08.12.14.2.19.11.07.23.1.36.1.06,0,.22,0,.22,0h6c.2,0,.41,0,.57-.1.08-.05.15-.11.2-.19.05-.08.09-.17.11-.26l1.09-4.88c.03-.13.02-.27-.02-.39-.04-.13-.11-.24-.21-.33Z" fill="#fff"></path><path id="uuid-6bf07cd4-4133-45eb-8239-4a041011c440" data-name="Rectangle_1161" d="M5.5,13h7c.28,0,.5.22.5.5h0c0,.28-.22.5-.5.5h-7c-.28,0-.5-.22-.5-.5h0c0-.28.22-.5.5-.5Z" fill="#fff"></path></g></g></svg>