<?xml version="1.0" encoding="UTF-8"?>
<svg xmlns="http://www.w3.org/2000/svg" version="1.1" viewBox="0 0 800 800">
  <defs>
    <style>
      .cls-1 {
        fill: #fff;
      }
    </style>
  </defs>
  <!-- Generator: Adobe Illustrator 28.7.1, SVG Export Plug-In . SVG Version: 1.2.0 Build 142)  -->
  <g>
    <g id="Layer_1">
      <path class="cls-1" d="M252.7,500.3l17.7-17.7-17.7,17.7ZM252.7,317.7l-17.7-17.7,17.7,17.7ZM481.6,545.9l-17.7-17.7,17.7,17.7ZM298.4,545.9l-17.7,17.7,17.7-17.7ZM390,610.4v25-25ZM676.4,351.6l17.7,17.7-17.7-17.7ZM447.6,123.4l17.6,17.7-17.6-17.7ZM361.9,472.3c9.8-9.7,9.8-25.6,0-35.4-9.7-9.8-25.6-9.8-35.4,0l35.3,35.4ZM185.8,384.4l17.7-17.7h0s-17.7,17.7-17.7,17.7ZM330.7,247.4c11.6,7.5,27.1,4.1,34.6-7.5,7.5-11.6,4.1-27.1-7.5-34.6l-27.1,42ZM323.2,212.9l13.5-21h0l-13.5,21ZM237.6,168.9l3.7-24.7-3.7,24.7ZM74.2,267.4l17.7,17.7h0l-17.7-17.7ZM178,176.5l9.6,23.1h0l-9.6-23.1ZM95.4,314.2l-9.2,23.2h0l9.2-23.2ZM99.5,315.8l9.5-23.1-9.5,23.1ZM153.8,352.4l17.7-17.7-17.7,17.7ZM150.6,349.3l-17.4,17.9,17.4-17.9ZM82.8,309.2l9.2-23.2h0l-9.2,23.2ZM416.7,616.7l-17.7,17.7c.4.4.8.8,1.2,1.1l16.5-18.8ZM594.1,441.1c-7.5-11.6-23-14.9-34.6-7.4-11.6,7.5-14.9,23-7.4,34.6l42-27.2ZM586.7,475.6l-21,13.6,21-13.6ZM630.8,561l24.7-3.7-24.7,3.7ZM532,723.8l17.7,17.7-17.7-17.7ZM623.1,620.4l23.1,9.6-23.1-9.6ZM491.6,719.2l23.2-9.3-23.2,9.3ZM475.8,682.8l21.9-12-21.9,12ZM434.1,631.9l17.6-17.7-.6-.6-.6-.5-16.5,18.8ZM461.4,660.8l19.7-15.4-19.7,15.4ZM529.2,726.6l-17.6-17.7,17.6,17.7ZM191.7,390.3l23.2,9.3-23.2-9.3ZM658.8,333.9l-194.9,194.3,35.3,35.4,194.9-194.3-35.3-35.4ZM316.1,528.2l-45.8-45.6-35.3,35.4,45.8,45.6,35.3-35.4ZM270.3,335.4l194.9-194.3-35.3-35.4-194.9,194.3,35.3,35.4ZM584.9,91.7h19v-50h-19v50ZM708.3,195.8v18.9h50v-18.9h-50ZM603.9,91.7c31.2,0,52.1,0,67.7,2.1,14.9,2,21.1,5.4,25.1,9.5l35.3-35.4c-14.9-14.9-33.4-20.9-53.8-23.6-19.7-2.6-44.5-2.6-74.4-2.6v50ZM758.3,195.8c0-29.7,0-54.5-2.6-74.2-2.7-20.4-8.8-38.9-23.7-53.7l-35.3,35.4c4.1,4,7.5,10.2,9.5,25,2.1,15.5,2.1,36.3,2.1,67.5h50ZM270.3,482.6c-22.1-22-36.8-36.8-46.4-49.2-9.1-11.9-11-18.7-11-24.3h-50c0,21.1,8.8,38.4,21.3,54.7,12,15.7,29.7,33.2,50.8,54.3l35.3-35.4ZM280.8,563.6c21.1,21,38.6,38.6,54.4,50.6,16.4,12.4,33.7,21.2,54.8,21.2v-50c-5.8,0-12.6-2-24.5-11-12.5-9.5-27.3-24.2-49.4-46.2l-35.3,35.4ZM694.1,369.3c26.6-26.5,45.2-44.4,54.9-67.9l-46.2-19.2c-5,12.1-14.5,22.2-44.1,51.7l35.3,35.4ZM708.3,214.7c0,41.6-.4,55.4-5.5,67.6l46.2,19.2c9.7-23.5,9.3-49.2,9.3-86.7h-50ZM465.2,141.1c29.5-29.4,39.7-38.9,51.8-43.9l-19.1-46.2c-23.5,9.7-41.4,28.2-68.1,54.7l35.3,35.4ZM584.9,41.7c-37.7,0-63.4-.4-86.9,9.3l19.1,46.2c12.2-5,26.1-5.5,67.8-5.5v-50ZM293.2,540.8l68.7-68.5-35.3-35.4-68.7,68.5,35.3,35.4ZM357.7,205.4l-21-13.5-27.1,42,21,13.5,27.1-42ZM336.7,191.9c-20.7-13.3-37.4-24.1-51.8-31.9-14.7-7.9-28.5-13.5-43.7-15.8l-7.3,49.5c7.3,1.1,15.3,3.9,27.3,10.3,12.3,6.6,27.1,16.1,48.5,29.9l27.1-42ZM91.8,285.1c18.8-18.7,38.9-38.8,57-55.3,9-8.2,17.3-15.3,24.3-20.8,7.4-5.7,12.2-8.5,14.4-9.5l-19.2-46.2c-8.6,3.6-17.6,9.7-25.8,16-8.6,6.6-18,14.7-27.5,23.4-19.1,17.4-40,38.3-58.6,56.8l35.3,35.4ZM241.2,144.2c-24.5-3.6-49.7-.3-72.8,9.3l19.2,46.2c15-6.2,31.1-8.2,46.3-6l7.3-49.5ZM73.6,332.4l12.6,5,18.4-46.5-12.6-5-18.4,46.5ZM136.1,370.1l32,31.9,35.3-35.4-32-31.9-35.3,35.4ZM86.2,337.4c2.1.8,3,1.2,3.8,1.5l19-46.2c-1.2-.5-2.4-1-4.4-1.8l-18.4,46.5ZM171.4,334.7c-1.5-1.5-2.4-2.4-3.4-3.3l-34.8,35.9c.6.6,1.3,1.3,2.9,2.9l35.3-35.4ZM90,339c16.1,6.6,30.7,16.2,43.2,28.3l34.8-35.9c-17-16.5-37-29.6-59-38.7l-19,46.2ZM56.5,249.7c-25.8,25.7-16.7,69.3,17.1,82.7l18.4-46.5c-.1,0-.2-.1-.2-.1,0,0,0,0,0,0,0,0,0-.1-.1-.3,0-.2,0-.2,0-.3,0,0,0,0,0,0,0,0,0,0,.1-.2l-35.3-35.4ZM552.2,468.2l13.5,20.9,42-27.2-13.5-20.9-42,27.2ZM514.3,706.1l-2.8,2.8,35.3,35.4,2.8-2.8-35.3-35.4ZM565.7,489.1c13.8,21.3,23.3,36.1,30,48.3,6.5,11.9,9.3,19.9,10.4,27.2l49.5-7.4c-2.3-15.2-7.9-29-15.9-43.6-7.8-14.4-18.6-31-32-51.7l-42,27.2ZM549.6,741.6c18.6-18.5,39.5-39.4,57-58.4,8.7-9.5,16.9-18.9,23.5-27.4,6.3-8.2,12.5-17.2,16.1-25.7l-46.1-19.3c-.9,2.2-3.7,6.9-9.5,14.3-5.5,7-12.6,15.2-20.8,24.3-16.6,18-36.7,38.1-55.4,56.8l35.3,35.4ZM606,564.6c2.3,15.2.3,31.1-6,46.1l46.1,19.3c9.6-23.1,12.9-48.2,9.3-72.7l-49.5,7.4ZM450.6,613.2l-17.4-15.3-33,37.6,17.4,15.3,33-37.6ZM514.9,709.9c-7.2-17.9-11.5-28.9-17.1-39.2l-43.8,24c3.8,7,6.9,14.6,14.5,33.6l46.4-18.5ZM416.4,649.7c14.5,14.5,20.3,20.3,25.2,26.6l39.4-30.8c-7.2-9.3-15.6-17.5-29.3-31.2l-35.3,35.4ZM497.7,670.7c-4.9-8.9-10.5-17.4-16.7-25.3l-39.4,30.8c4.6,5.8,8.7,12,12.2,18.5l43.8-24ZM555.5,300c-15.5,15.5-40.7,15.5-56.3,0l-35.3,35.4c35,34.9,91.8,34.9,126.9,0l-35.3-35.4ZM499.2,300c-15.5-15.4-15.5-40.4,0-55.9l-35.3-35.4c-35.1,35-35.1,91.7,0,126.7l35.3-35.4ZM499.2,244.1c15.5-15.5,40.7-15.5,56.3,0l35.3-35.4c-35-34.9-91.8-34.9-126.9,0l35.3,35.4ZM555.5,244.1c15.5,15.4,15.5,40.4,0,55.9l35.3,35.4c35.1-35,35.1-91.7,0-126.7l-35.3,35.4ZM511.5,708.9c.2-.2.6-.4.9-.5.3,0,.6,0,.7,0,.2,0,.5.1.8.4.4.3.7.7.9,1.1l-46.4,18.5c12.8,32.1,54.4,39.9,78.4,15.9l-35.3-35.4ZM463.9,528.2c-17,17-29.9,29.8-40.9,39.3-11.1,9.6-18.5,14.2-24.4,16.4l17.3,46.9c14.3-5.3,27.1-14.5,39.8-25.4,12.7-11,26.9-25.2,43.5-41.7l-35.3-35.4ZM398.7,583.8c-3.1,1.1-5.8,1.6-8.7,1.6v50c9,0,17.6-1.6,25.9-4.7l-17.3-46.9ZM434.3,599l-9.4-9.4-35.4,35.4,9.4,9.4,35.4-35.4ZM235,300c-16.2,16.1-30.2,30-41,42.4-10.8,12.3-20,24.8-25.5,38.5l46.4,18.7c2.4-5.9,7.2-13.3,16.8-24.2,9.5-10.8,22.1-23.4,38.7-40l-35.3-35.4ZM168.5,380.9c-3.6,8.9-5.5,18.2-5.5,28.1h50c0-3,.5-6,1.9-9.4l-46.4-18.7ZM168.1,402.1l5.9,5.9,35.4-35.4-5.9-5.9-35.4,35.4Z"/>
    </g>
  </g>
</svg>