<svg id="Layer_1" data-name="Layer 1" xmlns="http://www.w3.org/2000/svg" xmlns:xlink="http://www.w3.org/1999/xlink" viewBox="0 0 20 18"><defs><linearGradient id="linear-gradient" y1="9" x2="20" y2="9" gradientUnits="userSpaceOnUse"><stop offset="0" stop-color="#5729d9"/><stop offset="1" stop-color="#bc1866"/></linearGradient></defs><title>site-builder</title><g id="ic_fluent_web_asset_24_regular" data-name="ic fluent web asset 24 regular"><path d="M16.75,0A3.27,3.27,0,0,1,20,3.25v11.5A3.27,3.27,0,0,1,16.75,18H3.25A3.27,3.27,0,0,1,0,14.75V3.25A3.27,3.27,0,0,1,3.25,0Zm0,1.5H3.25A1.75,1.75,0,0,0,1.5,3.25v11.5A1.75,1.75,0,0,0,3.25,16.5h13.5a1.75,1.75,0,0,0,1.75-1.75V3.25A1.75,1.75,0,0,0,16.75,1.5Zm-12,2h10.5a.77.77,0,0,1,.81.7.76.76,0,0,1-.7.8H4.75a.75.75,0,0,1-.1-1.49Z" fill="url(#linear-gradient)"/></g></svg>