<?xml version="1.0" encoding="UTF-8"?>
<svg id="Layer_1" xmlns="http://www.w3.org/2000/svg" xmlns:xlink="http://www.w3.org/1999/xlink" width="199" version="1.1" viewBox="0 0 199 45">
  <!-- Generator: Adobe Illustrator 29.2.0, SVG Export Plug-In . SVG Version: 2.1.0 Build 108)  -->
  <defs>
    <style>
      .st0 {
        fill: none;
      }

      .st1 {
        fill: url(#linear-gradient2);
      }

      .st2 {
        fill: url(#linear-gradient1);
      }

      .st3 {
        fill: url(#linear-gradient3);
      }

      .st4 {
        fill: url(#linear-gradient6);
      }

      .st5 {
        fill: url(#linear-gradient5);
      }

      .st6 {
        fill: url(#linear-gradient4);
      }

      .st7 {
        fill: url(#linear-gradient);
      }

      .st8 {
        fill: #fff;
      }

      .st9 {
        fill: #333;
      }

      .st10 {
        clip-path: url(#clippath);
      }
    </style>
    <clipPath id="clippath">
      <circle class="st0" cx="22.5" cy="22.5" r="22.5"/>
    </clipPath>
    <linearGradient id="linear-gradient" x1="5.5" y1="8" x2="39.8" y2="37.2" gradientUnits="userSpaceOnUse">
      <stop offset="0" stop-color="#5b28d5"/>
      <stop offset="1" stop-color="#ce1452"/>
    </linearGradient>
    <linearGradient id="linear-gradient1" x1="10.8" y1="-7" x2="52.1" y2="41.6" gradientUnits="userSpaceOnUse">
      <stop offset="0" stop-color="#5729d9"/>
      <stop offset=".4" stop-color="#971d8f"/>
      <stop offset=".7" stop-color="#c3155d"/>
      <stop offset=".8" stop-color="#d5134a"/>
    </linearGradient>
    <linearGradient id="linear-gradient2" x1="-5" y1="-5.6" x2="44" y2="49.1" gradientUnits="userSpaceOnUse">
      <stop offset=".2" stop-color="#5729d9"/>
      <stop offset=".5" stop-color="#971d8f"/>
      <stop offset=".7" stop-color="#c3155d"/>
      <stop offset=".8" stop-color="#d5134a"/>
    </linearGradient>
    <linearGradient id="linear-gradient3" x1="2.2" y1=".3" x2="43.5" y2="48.9" xlink:href="#linear-gradient1"/>
    <linearGradient id="linear-gradient4" x1="-4.1" y1="-6.3" x2="44.9" y2="48.3" xlink:href="#linear-gradient2"/>
    <linearGradient id="linear-gradient5" x1="-8.1" y1="13.2" x2="51.8" y2="80" gradientUnits="userSpaceOnUse">
      <stop offset=".2" stop-color="#5729d9"/>
      <stop offset=".5" stop-color="#971d8f"/>
      <stop offset=".7" stop-color="#c3155d"/>
      <stop offset=".8" stop-color="#d5134a"/>
    </linearGradient>
    <linearGradient id="linear-gradient6" x1="-5" y1="2.6" x2="49" y2="62.8" xlink:href="#linear-gradient5"/>
  </defs>
  <g class="st10">
    <circle class="st7" cx="22.5" cy="22.5" r="22.5"/>
    <g>
      <path class="st2" d="M22.5,0C16.2,0,10.5,2.6,6.4,6.8c1.6.7,3.1,1.4,4.7,2.3.4.2.7.4,1.1.6,14.4,8.2,17.6,19,29.2,25.2,2.3-3.6,3.7-7.8,3.7-12.4C45,10.1,34.9,0,22.5,0Z"/>
      <path class="st1" d="M12.1,9.7c-.3-.2-.7-.4-1.1-.6-1.6-.8-3.1-1.6-4.7-2.2-1.8,1.9-3.3,4-4.4,6.4.8.3,1.7.6,2.4,1,.1,0,.2,0,.3.1h0c.3.1.6.3,1,.4,0,0,0,0,0,0h0c.6.3,1.2.6,1.8.9,0,0,.1,0,.2,0,0,0,.1,0,.2,0,3.3,1.7,6.1,3.5,8.6,5.4.1,0,.2.2.4.3h0c.1,0,.2.2.3.3.1,0,.2.2.4.3h0c0,0,.1,0,.2.1.2.1.4.3.5.4h0c.7.5,1.3,1.1,1.9,1.6,0,0,0,0,.1.1h0c.9.8,1.8,1.5,2.6,2.3.8.7,1.6,1.4,2.3,2.1,0,0,.2.1.2.2,0,0,.2.2.3.2.2.2.4.4.6.5.1.1.3.2.4.4h0c.5.4,1,.9,1.5,1.3.1.1.3.2.4.4.2.1.3.2.5.4.5.4.9.7,1.4,1.1,0,0,0,0,.1.1.2.2.5.3.7.5.2.2.5.3.7.5.1,0,.2.2.3.2.6.4,1.1.7,1.7,1.1,0,0,.1,0,.2.1,0,0,.2,0,.2.1.3.2.7.4,1.1.6,0,0,.2.1.3.2h0c.4.2.8.4,1.2.7.1,0,.3.1.4.2.3.1.6.3.8.4,0,0,.1,0,.2,0,1-1,1.8-2.1,2.6-3.2-11.6-6.2-14.8-17-29.2-25.2Z"/>
      <path class="st3" d="M6.4,6.8s0,0,0,0c1.6.6,3.2,1.4,4.7,2.2-1.5-.8-3.1-1.6-4.7-2.3Z"/>
      <path class="st6" d="M6.4,6.8s0,0,0,0c1.6.6,3.2,1.4,4.7,2.2-1.5-.8-3.1-1.6-4.7-2.3Z"/>
      <path class="st5" d="M0,21.5C0,21.8,0,22.2,0,22.5,0,34.9,10.1,45,22.5,45s3.5-.2,5.2-.6C19,36.1,11.2,27,0,21.5Z"/>
      <path class="st4" d="M36.9,37.2c-.3-.1-.5-.3-.8-.4h0c0,0-.2-.1-.3-.2-.2,0-.4-.2-.5-.3-.2-.1-.4-.2-.5-.3-.1,0-.3-.2-.4-.3-.2-.1-.4-.2-.6-.4-.2-.2-.5-.3-.7-.5-.1,0-.3-.2-.4-.3-.6-.4-1.3-.9-1.9-1.4-.2-.1-.4-.3-.5-.4-.2-.2-.5-.4-.7-.5,0,0-.1-.1-.2-.2-.3-.2-.6-.5-.9-.7,0,0-.2-.1-.2-.2-.2-.2-.4-.4-.7-.5-.2-.2-.4-.4-.7-.6h0c-.1-.1-.3-.2-.4-.4,0,0-.2-.1-.2-.2-.1-.1-.3-.2-.4-.3-.2-.1-.3-.3-.5-.4-.1-.1-.3-.2-.4-.3-.2-.2-.4-.4-.6-.6h0s-.6-.6-.6-.6c-.2-.2-.4-.4-.6-.6h0c-.2-.2-.4-.4-.7-.6h0c-.2-.2-.4-.4-.7-.6-.2-.2-.4-.4-.7-.6-.2-.2-.4-.4-.7-.6h0s0,0-.1-.1c-.2-.2-.4-.3-.5-.5-.2-.2-.5-.4-.7-.6-.2-.2-.5-.4-.7-.6h0c-.2-.1-.3-.3-.5-.4,0,0-.1,0-.2-.1h0c-.1,0-.2-.2-.4-.3-.1,0-.2-.2-.3-.3h0c-.1,0-.2-.2-.4-.3-.1,0-.2-.2-.4-.3-.2-.2-.5-.4-.8-.6-.3-.2-.5-.4-.8-.6-.3-.2-.5-.4-.8-.5-.3-.2-.5-.4-.8-.5-.3-.2-.5-.4-.8-.5-.3-.2-.6-.3-.8-.5-.3-.2-.6-.3-.9-.5-.3-.2-.6-.3-.9-.5-.3-.2-.6-.3-.9-.5-.3-.1-.5-.3-.8-.4-.1,0-.2-.1-.3-.2-.3-.1-.5-.3-.8-.4-.3-.2-.7-.3-1-.5h0s0,0,0,0c-.3-.1-.6-.3-1-.4h0c-.1,0-.2,0-.3-.1-.2-.1-.5-.2-.8-.3-.4-.1-.7-.3-1.1-.4-.2,0-.4-.1-.6-.2C.8,15.8.1,18.6,0,21.5c11.1,5.4,19,14.6,27.7,22.9,4.3-1,8.1-3.2,11-6.3-.5-.2-1-.5-1.4-.7-.1,0-.3-.1-.4-.2Z"/>
    </g>
  </g>
  <g>
    <polygon class="st8" points="31.1 27.2 13.9 23.4 13.9 17.5 31.1 21.4 31.1 27.2"/>
    <path class="st8" d="M25.7,18.1l-11.8,5.3v-5.9l17.1-7.7h0c0,3.6-2.1,6.8-5.4,8.3h0Z"/>
    <path class="st8" d="M19.3,26.9l11.8-5.3v5.9l-17.1,7.7h0c0-3.6,2.1-6.8,5.4-8.3h0Z"/>
  </g>
  <g>
    <path class="st9" d="M63.4,16.9c-.5-.9-1.9-1.7-3.6-1.7s-3.1.9-3.1,2,1.6,1.7,3.4,1.9c3.2.4,6.1,1.2,6.1,4.8s-3,4.8-6.3,4.8-5.5-1-6.6-3.7l2.4-1.2c.7,1.7,2.4,2.4,4.2,2.4s3.5-.6,3.5-2.3-1.5-2-3.5-2.2c-3.1-.4-5.9-1.2-5.9-4.6s3.1-4.4,5.8-4.4c2.3,0,4.8.7,5.9,3l-2.3,1.2h0Z"/>
    <path class="st9" d="M68.4,32.8v-15.1h2.5l.2,1.5c.8-1.2,2.2-1.7,3.5-1.7,3.3,0,5.5,2.4,5.5,5.6s-2,5.6-5.4,5.6-2.8-.3-3.5-1.5v5.7h-2.6ZM77.3,23c0-1.7-1.1-3-3-3s-3,1.4-3,3,1.2,3,3,3,3-1.4,3-3Z"/>
    <path class="st9" d="M84.1,24c.2,1.3,1.3,2.3,3.2,2.3s2.2-.4,2.8-1l1.7,1.7c-1.1,1.2-3,1.7-4.6,1.7-3.7,0-5.8-2.3-5.8-5.7s2.2-5.6,5.7-5.6,5.8,2.2,5.4,6.6h-8.3,0ZM89.9,21.8c-.2-1.4-1.2-2.1-2.8-2.1s-2.6.7-3,2.1h5.8,0Z"/>
    <path class="st9" d="M101,17.7h3.2c0,0-3.5,5.2-3.5,5.2l3.7,5.3h0c0,0-3.2,0-3.2,0l-2.3-3.6-2.3,3.6h-3.2c0,0,3.7-5.4,3.7-5.4l-3.5-5.2h0c0,0,3.2,0,3.2,0l2.1,3.6,2.1-3.6h0Z"/>
    <path class="st9" d="M116.3,23c0,3.1-2.1,5.5-5.6,5.5s-5.5-2.5-5.5-5.5,2.1-5.5,5.5-5.5,5.6,2.5,5.6,5.5h0ZM107.9,23c0,1.6,1,3.1,2.9,3.1s2.9-1.5,2.9-3.1-1.1-3.1-2.9-3.1-2.9,1.6-2.9,3.1Z"/>
    <path class="st9" d="M133.4,25.5h-7.9l-1.3,2.9h-3.1l6.8-15.1h3.1l6.8,15.1h-3.1l-1.3-2.9h0ZM129.5,16.4l-2.8,6.4h5.6l-2.8-6.4h0Z"/>
    <path class="st9" d="M149.3,13.2v15.1h-2.5l-.2-1.5c-.8,1.3-2.1,1.7-3.4,1.7-3.1,0-5.5-2.1-5.5-5.6s2.3-5.6,5.4-5.6,2.9.6,3.5,1.7v-5.9h2.6,0ZM140.4,23c0,1.9,1.3,3.1,3,3.1s3.1-1.2,3.1-3.1-1.4-3.1-3.1-3.1-3,1.2-3,3.1Z"/>
    <path class="st9" d="M162.6,13.2v15.1h-2.5l-.2-1.5c-.8,1.3-2.1,1.7-3.4,1.7-3.1,0-5.5-2.1-5.5-5.6s2.3-5.6,5.4-5.6,2.9.6,3.5,1.7v-5.9h2.6,0ZM153.7,23c0,1.9,1.3,3.1,3,3.1s3.1-1.2,3.1-3.1-1.4-3.1-3.1-3.1-3,1.2-3,3.1Z"/>
    <path class="st9" d="M175.5,23c0,3.1-2.1,5.5-5.6,5.5s-5.5-2.5-5.5-5.5,2.1-5.5,5.5-5.5,5.6,2.5,5.6,5.5h0ZM167.1,23c0,1.6,1,3.1,2.9,3.1s2.9-1.5,2.9-3.1-1.1-3.1-2.9-3.1-2.9,1.6-2.9,3.1Z"/>
    <path class="st9" d="M185.2,28.4v-5.6c0-1.6-.9-2.9-2.6-2.9s-2.7,1.4-2.7,3v5.4h-2.6v-10.7h2.4l.2,1.5c1.1-1.1,2.2-1.6,3.5-1.6,2.5,0,4.5,1.9,4.5,5.2v5.6h-2.6,0Z"/>
    <path class="st9" d="M197,20.5c-.8-.7-1.6-1-2.6-1s-1.9.4-1.9,1.1.6,1.1,2,1.2c2,.1,4.6.6,4.6,3.4s-1.5,3.5-4.6,3.5-3.4-.3-4.9-1.9l1.3-1.9c.8.8,2.5,1.5,3.7,1.5,1,0,1.9-.5,1.9-1.3s-.6-1-2.1-1.1c-2-.1-4.4-.9-4.4-3.3s2.6-3.3,4.5-3.3,2.9.3,4.1,1.4l-1.5,1.7h0Z"/>
  </g>
</svg>