<svg id="Layer_1" data-name="Layer 1" xmlns="http://www.w3.org/2000/svg" viewBox="0 0 20 20"><title>support</title><path d="M10,2a8,8,0,0,0-8,8H4.6A3.42,3.42,0,0,1,7,11a3.23,3.23,0,0,1,1,2.34v3.42a3.23,3.23,0,0,1-1,2.34A3.42,3.42,0,0,1,4.6,20H3.4A3.42,3.42,0,0,1,1,19.05a3.23,3.23,0,0,1-1-2.34V10a10,10,0,0,1,20,0v6.71a3.23,3.23,0,0,1-1,2.34A3.42,3.42,0,0,1,16.6,20H15.4A3.42,3.42,0,0,1,13,19.05a3.23,3.23,0,0,1-1-2.34V13.29A3.23,3.23,0,0,1,13,11,3.42,3.42,0,0,1,15.4,10H18a8,8,0,0,0-8-8Zm8,10H15.4a1.49,1.49,0,0,0-1,.39,1.28,1.28,0,0,0-.39.9v3.42a1.28,1.28,0,0,0,.39.9,1.49,1.49,0,0,0,1,.39h1.2a1.49,1.49,0,0,0,1-.39,1.28,1.28,0,0,0,.39-.9ZM2,12H4.6a1.49,1.49,0,0,1,1,.39,1.28,1.28,0,0,1,.39.9v3.42a1.28,1.28,0,0,1-.39.9,1.49,1.49,0,0,1-1,.39H3.4a1.49,1.49,0,0,1-1-.39,1.28,1.28,0,0,1-.39-.9Z" fill="#727272" fill-rule="evenodd"/></svg>