<svg id="_2" data-name="2" xmlns="http://www.w3.org/2000/svg" viewBox="0 0 20.75 26.07"><title>template-icon</title><path d="M18.07.38H8.73a2.52,2.52,0,0,0-1.79.74L1.12,6.94A2.52,2.52,0,0,0,.38,8.73V23.4a2.3,2.3,0,0,0,2.3,2.3H18.07a2.3,2.3,0,0,0,2.3-2.3V2.68A2.29,2.29,0,0,0,18.07.38ZM7.91,2V7.15c0,.56-.21.78-.77.78H2ZM19.08,23.4a1,1,0,0,1-1,1H2.68a1,1,0,0,1-1-1V9.08H7.83A1.24,1.24,0,0,0,9.07,7.84V1.67h9a1,1,0,0,1,1,1Z" fill="#5729d9" stroke="#5729d9" stroke-miterlimit="10" stroke-width="0.75"/></svg>