<svg id="Layer_1" data-name="Layer 1" xmlns="http://www.w3.org/2000/svg" viewBox="0 0 20.35 18.81"><title>widget-setting-tab</title><path d="M13.18.19a4,4,0,0,1,3.45,2l3,5.21a4,4,0,0,1,0,4l-3,5.22a4,4,0,0,1-3.45,2h-6a4,4,0,0,1-3.45-2l-3-5.22a4,4,0,0,1,0-4l3-5.21a4,4,0,0,1,3.45-2Zm0,1.33h-6a2.63,2.63,0,0,0-2.26,1.2l-.08.12-3,5.25a2.58,2.58,0,0,0-.07,2.51l.07.14,3,5.21A2.63,2.63,0,0,0,7,17.25h6.17a2.67,2.67,0,0,0,2.22-1.16l.08-.13,3-5.21a2.69,2.69,0,0,0,.07-2.51l-.07-.15-3-5.22a2.67,2.67,0,0,0-2.15-1.32Zm-3,3.88a4,4,0,1,1-4,4,4,4,0,0,1,4-4Zm0,1.33a2.66,2.66,0,1,0,2.64,2.68h0a2.65,2.65,0,0,0-2.65-2.65h0Z" fill="#5729d9" stroke="#5729d9" stroke-miterlimit="10" stroke-width="0.38"/></svg>