<svg id="Layer_1" data-name="Layer 1" xmlns="http://www.w3.org/2000/svg" xmlns:xlink="http://www.w3.org/1999/xlink" viewBox="0 0 20.17 18.63"><defs><linearGradient id="linear-gradient" x1="0.1" y1="9.31" x2="20.08" y2="9.31" gradientUnits="userSpaceOnUse"><stop offset="0" stop-color="#5729d9"/><stop offset="1" stop-color="#bc1866"/></linearGradient><linearGradient id="linear-gradient-2" x1="0" y1="9.31" x2="20.18" y2="9.31" xlink:href="#linear-gradient"/></defs><title>widget-setting</title><path d="M13.09.1a4,4,0,0,1,3.45,2l3,5.21a4,4,0,0,1,0,4l-3,5.22a4,4,0,0,1-3.45,2h-6a4,4,0,0,1-3.45-2l-3-5.22a4,4,0,0,1,0-4l3-5.21A4,4,0,0,1,7.09.1Zm0,1.33h-6a2.63,2.63,0,0,0-2.26,1.2l-.08.12L1.75,8a2.6,2.6,0,0,0-.07,2.51l.07.14,3,5.21a2.63,2.63,0,0,0,2.15,1.3h6.17A2.66,2.66,0,0,0,15.29,16l.08-.13,3-5.21a2.66,2.66,0,0,0,.07-2.51L18.37,8l-3-5.22a2.67,2.67,0,0,0-2.15-1.32Zm-3,3.88a4,4,0,1,1-4,4A4,4,0,0,1,10.09,5.31Zm0,1.33a2.66,2.66,0,1,0,2.64,2.68h0a2.65,2.65,0,0,0-2.65-2.65h0Z" transform="translate(0)" stroke-miterlimit="10" stroke-width="0.2" fill="url(#linear-gradient)" stroke="url(#linear-gradient-2)"/></svg>