<svg width="32" height="32" viewBox="0 0 32 32" fill="none" xmlns="http://www.w3.org/2000/svg">
  <!-- AI Brain/Neural Network Icon -->
  <defs>
    <linearGradient id="aiGradient" x1="0%" y1="0%" x2="100%" y2="100%">
      <stop offset="0%" style="stop-color:#6A1B9A;stop-opacity:1" />
      <stop offset="100%" style="stop-color:#E91E63;stop-opacity:1" />
    </linearGradient>
  </defs>
  
  <!-- Main brain shape -->
  <path d="M16 4C20.4183 4 24 7.58172 24 12C24 13.5 23.5 14.8 22.8 15.8C23.2 16.4 23.4 17.1 23.4 17.8C23.4 19.9 21.7 21.6 19.6 21.6H19.2C18.8 22.4 18.1 23 17.2 23.2V25.6C17.2 26.4 16.6 27 15.8 27H16.2C17 27 17.6 26.4 17.6 25.6V23.2C16.7 23 16 22.4 15.6 21.6H12.4C10.3 21.6 8.6 19.9 8.6 17.8C8.6 17.1 8.8 16.4 9.2 15.8C8.5 14.8 8 13.5 8 12C8 7.58172 11.5817 4 16 4Z" fill="url(#aiGradient)"/>
  
  <!-- Neural network nodes -->
  <circle cx="12" cy="10" r="1.5" fill="white" opacity="0.8"/>
  <circle cx="20" cy="10" r="1.5" fill="white" opacity="0.8"/>
  <circle cx="16" cy="14" r="1.5" fill="white" opacity="0.8"/>
  <circle cx="14" cy="18" r="1.5" fill="white" opacity="0.8"/>
  <circle cx="18" cy="18" r="1.5" fill="white" opacity="0.8"/>
  
  <!-- Connection lines -->
  <path d="M12 10L16 14M20 10L16 14M16 14L14 18M16 14L18 18" stroke="white" stroke-width="0.8" opacity="0.6" fill="none"/>
  
  <!-- AI text indicator -->
  <text x="16" y="28" font-family="Arial, sans-serif" font-size="8" font-weight="bold" text-anchor="middle" fill="url(#aiGradient)">AI</text>
</svg>
