<svg width="16" height="16" viewBox="0 0 16 16" fill="none" xmlns="http://www.w3.org/2000/svg">
  <path d="M8 1C8.55228 1 9 1.44772 9 2V3.5C9 4.05228 8.55228 4.5 8 4.5C7.44772 4.5 7 4.05228 7 3.5V2C7 1.44772 7.44772 1 8 1Z" fill="currentColor"/>
  <path d="M8 11.5C8.55228 11.5 9 11.9477 9 12.5V14C9 14.5523 8.55228 15 8 15C7.44772 15 7 14.5523 7 14V12.5C7 11.9477 7.44772 11.5 8 11.5Z" fill="currentColor"/>
  <path d="M3.5 7C3.5 6.44772 3.05228 6 2.5 6H1C0.447715 6 0 6.44772 0 7C0 7.55228 0.447715 8 1 8H2.5C3.05228 8 3.5 7.55228 3.5 7Z" fill="currentColor"/>
  <path d="M12.5 7C12.5 6.44772 12.9477 6 13.5 6H15C15.5523 6 16 6.44772 16 7C16 7.55228 15.5523 8 15 8H13.5C12.9477 8 12.5 7.55228 12.5 7Z" fill="currentColor"/>
  <path d="M4.46447 4.46447C4.85397 4.07495 5.48713 4.07495 5.87665 4.46447L6.82843 5.41624C7.21795 5.80576 7.21795 6.43892 6.82843 6.82843C6.43891 7.21795 5.80575 7.21795 5.41623 6.82843L4.46447 5.87665C4.07495 5.48713 4.07495 4.85399 4.46447 4.46447Z" fill="currentColor"/>
  <path d="M9.17157 9.17157C9.56109 8.78205 10.1943 8.78205 10.5838 9.17157L11.5355 10.1233C11.9251 10.5128 11.9251 11.146 11.5355 11.5355C11.146 11.9251 10.5128 11.9251 10.1233 11.5355L9.17157 10.5838C8.78205 10.1943 8.78205 9.56109 9.17157 9.17157Z" fill="currentColor"/>
  <path d="M6.82843 9.17157C6.43891 8.78205 5.80575 8.78205 5.41623 9.17157L4.46447 10.1233C4.07495 10.5128 4.07495 11.146 4.46447 11.5355C4.85399 11.9251 5.48713 11.9251 5.87665 11.5355L6.82843 10.5838C7.21795 10.1943 7.21795 9.56109 6.82843 9.17157Z" fill="currentColor"/>
  <path d="M10.5838 4.46447C10.1943 4.07495 9.56109 4.07495 9.17157 4.46447L8.2198 5.41624C7.83028 5.80576 7.83028 6.43892 8.2198 6.82843C8.60932 7.21795 9.24248 7.21795 9.632 6.82843L10.5838 5.87665C10.9733 5.48713 10.9733 4.85399 10.5838 4.46447Z" fill="currentColor"/>
</svg>
