<svg width="16" height="16" viewBox="0 0 16 16" fill="none" xmlns="http://www.w3.org/2000/svg">
  <path d="M12.5 2C12.7761 2 13 2.22386 13 2.5V4.5C13 4.77614 12.7761 5 12.5 5H3.5C3.22386 5 3 4.77614 3 4.5V2.5C3 2.22386 3.22386 2 3.5 2H12.5Z" fill="currentColor"/>
  <path d="M2.5 6C2.22386 6 2 6.22386 2 6.5V13.5C2 13.7761 2.22386 14 2.5 14H13.5C13.7761 14 14 13.7761 14 13.5V6.5C14 6.22386 13.7761 6 13.5 6H2.5ZM3 7V13H13V7H3Z" fill="currentColor"/>
  <path d="M4.5 8.5C4.5 8.22386 4.72386 8 5 8H7C7.27614 8 7.5 8.22386 7.5 8.5C7.5 8.77614 7.27614 9 7 9H5C4.72386 9 4.5 8.77614 4.5 8.5Z" fill="currentColor"/>
  <path d="M4.5 10.5C4.5 10.2239 4.72386 10 5 10H9C9.27614 10 9.5 10.2239 9.5 10.5C9.5 10.7761 9.27614 11 9 11H5C4.72386 11 4.5 10.7761 4.5 10.5Z" fill="currentColor"/>
  <path d="M10 8.5C10 8.22386 10.2239 8 10.5 8H11.5C11.7761 8 12 8.22386 12 8.5C12 8.77614 11.7761 9 11.5 9H10.5C10.2239 9 10 8.77614 10 8.5Z" fill="currentColor"/>
  <path d="M10 10.5C10 10.2239 10.2239 10 10.5 10H11.5C11.7761 10 12 10.2239 12 10.5C12 10.7761 11.7761 11 11.5 11H10.5C10.2239 11 10 10.7761 10 10.5Z" fill="currentColor"/>
  <path d="M10 12.5C10 12.2239 10.2239 12 10.5 12H11.5C11.7761 12 12 12.2239 12 12.5C12 12.7761 11.7761 13 11.5 13H10.5C10.2239 13 10 12.7761 10 12.5Z" fill="currentColor"/>
  <circle cx="8" cy="3" r="0.5" fill="white"/>
</svg>
