<svg width="32" height="32" viewBox="0 0 32 32" fill="none" xmlns="http://www.w3.org/2000/svg">
  <defs>
    <linearGradient id="aiSettingsGradient" x1="0%" y1="0%" x2="100%" y2="100%">
      <stop offset="0%" style="stop-color:#6A1B9A;stop-opacity:1" />
      <stop offset="100%" style="stop-color:#E91E63;stop-opacity:1" />
    </linearGradient>
  </defs>
  
  <!-- AI Robot Head -->
  <rect x="8" y="6" width="16" height="20" rx="8" fill="url(#aiSettingsGradient)"/>
  
  <!-- Eyes -->
  <circle cx="12" cy="12" r="2" fill="white" opacity="0.9"/>
  <circle cx="20" cy="12" r="2" fill="white" opacity="0.9"/>
  
  <!-- Eye pupils -->
  <circle cx="12" cy="12" r="1" fill="url(#aiSettingsGradient)"/>
  <circle cx="20" cy="12" r="1" fill="url(#aiSettingsGradient)"/>
  
  <!-- Mouth -->
  <rect x="14" y="18" width="4" height="2" rx="1" fill="white" opacity="0.7"/>
  
  <!-- Antenna -->
  <line x1="16" y1="6" x2="16" y2="2" stroke="url(#aiSettingsGradient)" stroke-width="2"/>
  <circle cx="16" cy="2" r="1.5" fill="url(#aiSettingsGradient)"/>
  
  <!-- Settings gear -->
  <g transform="translate(22, 22)">
    <circle cx="0" cy="0" r="3" fill="white" opacity="0.8"/>
    <path d="M-2.5,-2.5 L2.5,2.5 M2.5,-2.5 L-2.5,2.5" stroke="url(#aiSettingsGradient)" stroke-width="1"/>
    <circle cx="0" cy="0" r="1" fill="url(#aiSettingsGradient)"/>
  </g>
  
  <!-- Circuit lines -->
  <path d="M4,24 L8,24 M4,26 L6,26 M4,28 L8,28" stroke="white" stroke-width="1" opacity="0.6"/>
  <path d="M24,24 L28,24 M26,26 L28,26 M24,28 L28,28" stroke="white" stroke-width="1" opacity="0.6"/>
</svg>
