<svg width="18" height="18" viewBox="0 0 18 18" fill="none" xmlns="http://www.w3.org/2000/svg">
  <path d="M2 4C2 3.44772 2.44772 3 3 3H15C15.5523 3 16 3.44772 16 4V12C16 12.5523 15.5523 13 15 13H10.5L12.5 15H10.5L8.5 13H3C2.44772 13 2 12.5523 2 12V4Z" fill="currentColor" opacity="0.2"/>
  <path d="M3 4.5C3 4.22386 3.22386 4 3.5 4H14.5C14.7761 4 15 4.22386 15 4.5V11.5C15 11.7761 14.7761 12 14.5 12H3.5C3.22386 12 3 11.7761 3 11.5V4.5Z" fill="white"/>
  <path d="M4.5 5.5C4.5 5.22386 4.72386 5 5 5H6C6.27614 5 6.5 5.22386 6.5 5.5C6.5 5.77614 6.27614 6 6 6H5C4.72386 6 4.5 5.77614 4.5 5.5Z" fill="#667eea"/>
  <path d="M7.5 5.5C7.5 5.22386 7.72386 5 8 5H9C9.27614 5 9.5 5.22386 9.5 5.5C9.5 5.77614 9.27614 6 9 6H8C7.72386 6 7.5 5.77614 7.5 5.5Z" fill="#667eea"/>
  <path d="M10.5 5.5C10.5 5.22386 10.7239 5 11 5H12C12.2761 5 12.5 5.22386 12.5 5.5C12.5 5.77614 12.2761 6 12 6H11C10.7239 6 10.5 5.77614 10.5 5.5Z" fill="#667eea"/>
  <path d="M4.5 7.5C4.5 7.22386 4.72386 7 5 7H6C6.27614 7 6.5 7.22386 6.5 7.5C6.5 7.77614 6.27614 8 6 8H5C4.72386 8 4.5 7.77614 4.5 7.5Z" fill="#667eea"/>
  <path d="M7.5 7.5C7.5 7.22386 7.72386 7 8 7H9C9.27614 7 9.5 7.22386 9.5 7.5C9.5 7.77614 9.27614 8 9 8H8C7.72386 8 7.5 7.77614 7.5 7.5Z" fill="#667eea"/>
  <path d="M10.5 7.5C10.5 7.22386 10.7239 7 11 7H12C12.2761 7 12.5 7.22386 12.5 7.5C12.5 7.77614 12.2761 8 12 8H11C10.7239 8 10.5 7.77614 10.5 7.5Z" fill="#667eea"/>
  <path d="M4.5 9.5C4.5 9.22386 4.72386 9 5 9H6C6.27614 9 6.5 9.22386 6.5 9.5C6.5 9.77614 6.27614 10 6 10H5C4.72386 10 4.5 9.77614 4.5 9.5Z" fill="#667eea"/>
  <path d="M7.5 9.5C7.5 9.22386 7.72386 9 8 9H9C9.27614 9 9.5 9.22386 9.5 9.5C9.5 9.77614 9.27614 10 9 10H8C7.72386 10 7.5 9.77614 7.5 9.5Z" fill="#667eea"/>
  <path d="M10.5 9.5C10.5 9.22386 10.7239 9 11 9H12C12.2761 9 12.5 9.22386 12.5 9.5C12.5 9.77614 12.2761 10 12 10H11C10.7239 10 10.5 9.77614 10.5 9.5Z" fill="#667eea"/>
  <path d="M13.5 5.5C13.5 5.22386 13.7239 5 14 5H14.5C14.7761 5 15 5.22386 15 5.5C15 5.77614 14.7761 6 14.5 6H14C13.7239 6 13.5 5.77614 13.5 5.5Z" fill="#667eea"/>
  <path d="M13.5 7.5C13.5 7.22386 13.7239 7 14 7H14.5C14.7761 7 15 7.22386 15 7.5C15 7.77614 14.7761 8 14.5 8H14C13.7239 8 13.5 7.77614 13.5 7.5Z" fill="#667eea"/>
  <path d="M13.5 9.5C13.5 9.22386 13.7239 9 14 9H14.5C14.7761 9 15 9.22386 15 9.5C15 9.77614 14.7761 10 14.5 10H14C13.7239 10 13.5 9.77614 13.5 9.5Z" fill="#667eea"/>
  <circle cx="9" cy="11" r="0.5" fill="#667eea"/>
</svg>
